<svg xmlns="http://www.w3.org/2000/svg" width="42.75" height="29.925" viewBox="0 0 42.75 29.925">
  <g id="ccard" transform="translate(-290.13 -527.491)">
    <rect id="Rectangle_23" data-name="Rectangle 23" width="42.75" height="29.925" rx="7" transform="translate(290.13 527.491)" fill="#fdfcff"/>
    <g id="Group_237" data-name="Group 237" transform="translate(290.13 527.491)">
      <path id="Path_129" data-name="Path 129" d="M43.358,8.871v4.785a2.936,2.936,0,0,0-2.242-2.512,6.354,6.354,0,0,0-2.242-.359H7.484a6.354,6.354,0,0,0-2.242.359A2.936,2.936,0,0,0,3,13.655V8.871A2.936,2.936,0,0,1,5.242,6.359,6.354,6.354,0,0,1,7.484,6h31.39a6.354,6.354,0,0,1,2.242.359A2.936,2.936,0,0,1,43.358,8.871Z" transform="translate(-1.804 -4.804)" fill="#bfe9ff"/>
      <path id="Path_130" data-name="Path 130" d="M41.758,6.069A6.459,6.459,0,0,0,38.338,5H8.413a6.459,6.459,0,0,0-3.42,1.069A7.319,7.319,0,0,0,2,12.268v15.39c0,4.061,2.779,7.268,6.413,7.268H38.338c3.634,0,6.413-3.206,6.413-7.268V12.268a7.319,7.319,0,0,0-2.993-6.2Zm-34.2,3.42c.214,0,.641-.214.855-.214H38.338c.214,0,.641.214.855.214a3.447,3.447,0,0,1,1.283,2.779V13.55H6.275V12.268A3.447,3.447,0,0,1,7.558,9.489ZM38.338,30.65H8.413c-1.069,0-2.138-1.5-2.138-2.993V17.825h34.2v9.833C40.475,29.154,39.407,30.65,38.338,30.65Z" transform="translate(-2 -5)" fill="#0093de"/>
      <path id="Path_131" data-name="Path 131" d="M7.392,13H6.2A1.13,1.13,0,0,0,5,14.2v1.2a1.13,1.13,0,0,0,1.2,1.2h1.2a1.13,1.13,0,0,0,1.2-1.2V14.2A1.13,1.13,0,0,0,7.392,13Z" transform="translate(1.911 6.154)" fill="#0093de"/>
    </g>
  </g>
</svg>
