<svg xmlns="http://www.w3.org/2000/svg" width="38.063" height="44.78" viewBox="0 0 38.063 44.78">
  <path id="mic" d="M35.894,17.523a2.155,2.155,0,0,1,2.169,2.142A18.9,18.9,0,0,1,21.2,38.327h0v4.312a2.169,2.169,0,0,1-4.338,0h0V38.327A18.9,18.9,0,0,1,0,19.665a2.155,2.155,0,0,1,2.169-2.142,2.155,2.155,0,0,1,2.169,2.142,14.695,14.695,0,0,0,29.387,0A2.155,2.155,0,0,1,35.894,17.523ZM19.423,0A9.728,9.728,0,0,1,28.8,7.01a.869.869,0,0,1-.842,1.105H25.427a1.379,1.379,0,0,0-1.388,1.369h0a1.38,1.38,0,0,0,1.388,1.373h2.338a1.384,1.384,0,1,1,0,2.767H25.427a1.372,1.372,0,1,0,0,2.744h2.338a1.384,1.384,0,1,1,0,2.767H25.427a1.371,1.371,0,1,0,0,2.742h2.412a.866.866,0,0,1,.833,1.131,9.733,9.733,0,0,1-9.249,6.584H18.64A9.682,9.682,0,0,1,8.9,19.973h0V9.621A9.682,9.682,0,0,1,18.64,0h.783Z" fill="#0093de"/>
</svg>
