<svg id="Group_163081" data-name="Group 163081" xmlns="http://www.w3.org/2000/svg" xmlns:xlink="http://www.w3.org/1999/xlink" width="389.225" height="280" viewBox="0 0 389.225 280">
  <defs>
    <clipPath id="clip-path">
      <path id="Path_46" data-name="Path 46" d="M1257.531,863.306c9.547-37.8,21.35-56.962,35.086-56.962a.393.393,0,0,1,.232.057l43.771,25.885,58.9,8.49a.4.4,0,0,1,.233.119c.176.183,17.742,18.661,29.086,52.375,5.866,17.436,11.55,27.079,15.285,32.1,4.044,5.432,6.734,6.761,6.761,6.774a.406.406,0,0,1,.207.5.412.412,0,0,1-.48.254c-.221-.055-22.35-5.313-38.385,19.7l7.717,28.213a.4.4,0,0,1-.39.511h-118.27a.4.4,0,0,1-.4-.456l5.344-41.271c-4.416.07-37.923.068-54.843-19.225a.4.4,0,0,1-.1-.311A476.609,476.609,0,0,1,1257.531,863.306Z" transform="translate(-1247.28 -806.344)" fill="none"/>
    </clipPath>
    <clipPath id="clip-path-2">
      <path id="Path_54" data-name="Path 54" d="M1505.493,301.763a.4.4,0,0,1,.193-.32,34.215,34.215,0,0,1,7.352-3.129c5.728-1.738,13.934-2.6,20.514,3.17,10.47,9.189,7.374,24.857,6.839,27.2a39.231,39.231,0,0,1,12.839,14.606c8.846,17.01,4.352,36.485-.976,49.827a.4.4,0,0,1-.331.251c-4.472.491-9.172.827-13.967,1a.406.406,0,0,1-.419-.4v-5.719l-3.366,6.046a.4.4,0,0,1-.344.207q-1.954.038-3.9.036a200.131,200.131,0,0,1-25.211-1.574.41.41,0,0,1-.129-.039,17.9,17.9,0,0,1-4.579-3.145.4.4,0,0,1-.122-.314Z" transform="translate(-1499.881 -297.015)" fill="none"/>
    </clipPath>
    <clipPath id="clip-path-3">
      <path id="Path_81" data-name="Path 81" d="M1713.964,291.833a35.9,35.9,0,0,1,27.671-16.37c-.369-3.323-1.843-24.852,20.559-31.775,18.194-5.625,28.986,3.546,33.807,9.511,4.708,5.861,7.389,10.232,7.971,12.992a.4.4,0,0,1-.025.243c-.127.294-3.273,7.239-16.7,10.581a45.743,45.743,0,0,1-6.036,1.044c-4.323.47-7.536,2.275-9.55,5.368-5.276,8.1-.777,22.518-.731,22.661a.4.4,0,0,1-.081.388l-4.3,4.956c1.583,1.729,9.019,11.294,2.587,32.632a.4.4,0,0,1-.386.287.361.361,0,0,1-.093-.011,160.108,160.108,0,0,1-19.792-6.079.4.4,0,0,1-.255-.439l.841-5.511-2.845,4.7a.4.4,0,0,1-.5.164,137.442,137.442,0,0,1-30.291-16.849.4.4,0,0,1-.134-.477l1.806-4.442L1714.1,318.6a.4.4,0,0,1-.524.027c-2.565-1.975-5.081-4.07-7.476-6.229a.4.4,0,0,1-.128-.369A54.724,54.724,0,0,1,1713.964,291.833Z" transform="translate(-1705.969 -241.933)" fill="none"/>
    </clipPath>
  </defs>
  <g id="Group_22" data-name="Group 22" transform="translate(174.832 45.112)">
    <g id="Group_1" data-name="Group 1" transform="translate(56.507)">
      <path id="Path_1" data-name="Path 1" d="M976.461,501.269a.481.481,0,0,0,.386-.77c-2.646-3.553-4.98-11.781-.209-15.526,3.075-2.416,6.092-3,8.721-1.7,3.2,1.59,5.292,5.828,5.209,10.546a.482.482,0,0,0,.472.49h.009a.483.483,0,0,0,.482-.473c.09-5.082-2.219-9.674-5.744-11.426-2.943-1.464-6.4-.823-9.744,1.8-5.518,4.331-2.65,13.261.032,16.86A.479.479,0,0,0,976.461,501.269Z" transform="translate(-972.894 -481.643)" fill="#313b5b"/>
    </g>
    <g id="Group_2" data-name="Group 2" transform="translate(158.927 169.855)">
      <path id="Path_2" data-name="Path 2" d="M464.411,1435.074a.478.478,0,0,0,.073-.005c2.014-.311,4.084-.694,6.158-1.138a.482.482,0,0,0-.2-.943c-2.053.44-4.106.82-6.1,1.129a.482.482,0,0,0,.073.958Z" transform="translate(-463.929 -1432.979)" fill="#313b5b"/>
    </g>
    <g id="Group_3" data-name="Group 3" transform="translate(114.3 113.32)">
      <path id="Path_3" data-name="Path 3" d="M570.926,1176.52a32.252,32.252,0,0,0,6.884-.741.482.482,0,0,0-.207-.941,31.335,31.335,0,0,1-28.571-8.161c-6.816-6.789-9.419-15.894-7.332-25.638,2.834-9.909,11.869-15.946,20.609-21.784,1.026-.686,2.042-1.365,3.034-2.041a.482.482,0,0,0-.542-.8c-.99.676-2,1.353-3.028,2.036-8.469,5.658-18.068,12.071-21.006,22.352a28.349,28.349,0,0,0,7.584,26.554A32.1,32.1,0,0,0,570.926,1176.52Z" transform="translate(-540.062 -1116.334)" fill="#313b5b"/>
    </g>
    <g id="Group_4" data-name="Group 4" transform="translate(19.721 5.33)">
      <rect id="Rectangle_2" data-name="Rectangle 2" width="4.742" height="81.234" transform="translate(1.697 25.863) rotate(-104.834)" fill="#d5e7fe"/>
      <path id="Path_4" data-name="Path 4" d="M833.008,537.84a.516.516,0,0,0,.124-.016l78.528-20.8a.481.481,0,0,0,.341-.589l-1.214-4.584a.484.484,0,0,0-.222-.294.479.479,0,0,0-.367-.049l-78.528,20.8a.48.48,0,0,0-.341.589l1.214,4.584a.485.485,0,0,0,.222.294A.5.5,0,0,0,833.008,537.84Zm77.939-21.62-77.6,20.549-.967-3.653,77.6-20.549Z" transform="translate(-831.312 -511.495)" fill="#313b5b"/>
    </g>
    <g id="Group_5" data-name="Group 5" transform="translate(52.573 14.826)">
      <path id="Path_5" data-name="Path 5" d="M1038.166,572.955l-.211-.793a2.821,2.821,0,0,1,2-3.451l4.637-1.233a2.822,2.822,0,0,1,3.452,2l.211.793a2.821,2.821,0,0,1-2,3.452l-4.638,1.233A2.822,2.822,0,0,1,1038.166,572.955Z" transform="translate(-1037.378 -566.899)" fill="#313b5b"/>
      <path id="Path_6" data-name="Path 6" d="M1038.677,573.315a3.318,3.318,0,0,0,.854-.112l4.639-1.232a3.308,3.308,0,0,0,2.341-4.043l-.211-.792a3.3,3.3,0,0,0-4.041-2.344l-4.636,1.234a3.3,3.3,0,0,0-2.344,4.041l.211.792h0a3.3,3.3,0,0,0,3.186,2.455Zm4.432-7.671a2.346,2.346,0,0,1,2.262,1.739l.211.793a2.345,2.345,0,0,1-1.659,2.863l-4.64,1.233a2.338,2.338,0,0,1-2.862-1.66l-.211-.792a2.343,2.343,0,0,1,1.662-2.862l4.637-1.233A2.314,2.314,0,0,1,1043.109,565.645Zm-7.154,5.092h0Z" transform="translate(-1035.167 -564.68)" fill="#313b5b"/>
    </g>
    <g id="Group_6" data-name="Group 6" transform="translate(137.605 76.499)">
      <rect id="Rectangle_3" data-name="Rectangle 3" width="4.902" height="81.234" transform="translate(0.483 0.482)" fill="#d5e7fe"/>
      <path id="Path_7" data-name="Path 7" d="M590.7,992.3h4.9a.482.482,0,0,0,.482-.482V910.588a.482.482,0,0,0-.482-.482h-4.9a.482.482,0,0,0-.482.482v81.234A.482.482,0,0,0,590.7,992.3Zm4.42-.963h-3.939V911.07h3.939Z" transform="translate(-590.222 -910.106)" fill="#313b5b"/>
    </g>
    <g id="Group_7" data-name="Group 7" transform="translate(94.364 4.159)">
      <rect id="Rectangle_4" data-name="Rectangle 4" width="4.742" height="81.234" transform="translate(0.482 3.092) rotate(-33.403)" fill="#d5e7fe"/>
      <path id="Path_8" data-name="Path 8" d="M632.418,576.327a.474.474,0,0,0,.265-.08l3.958-2.611a.481.481,0,0,0,.138-.667l-44.721-67.816a.491.491,0,0,0-.307-.207.482.482,0,0,0-.362.071l-3.958,2.61a.481.481,0,0,0-.137.667l44.722,67.816a.49.49,0,0,0,.307.207A.479.479,0,0,0,632.418,576.327Zm3.29-3.229-3.152,2.08-44.191-67.012,3.152-2.081Z" transform="translate(-587.214 -504.938)" fill="#313b5b"/>
    </g>
    <path id="Path_9" data-name="Path 9" d="M580.445,849.581a7.276,7.276,0,1,1-7.276-7.276A7.276,7.276,0,0,1,580.445,849.581Z" transform="translate(-432.631 -777.911)" fill="#0093de"/>
    <path id="Path_10" data-name="Path 10" d="M820.395,503.825a7.276,7.276,0,1,1-2.511-9.978A7.276,7.276,0,0,1,820.395,503.825Z" transform="translate(-716.638 -490.82)" fill="#0093de"/>
    <g id="Group_8" data-name="Group 8" transform="translate(27.002 7.993)">
      <path id="Path_11" data-name="Path 11" d="M1074.314,562.256l11.915-2.818a15.363,15.363,0,0,0,11.415-18.487h0a15.363,15.363,0,0,0-18.487-11.415l-11.915,2.818Z" transform="translate(-1066.762 -528.637)" fill="#d5e7fe"/>
      <path id="Path_12" data-name="Path 12" d="M1072.085,560.512a.467.467,0,0,0,.111-.013l11.916-2.818a15.845,15.845,0,0,0-7.294-30.839L1064.9,529.66a.481.481,0,0,0-.357.58l7.072,29.9A.483.483,0,0,0,1072.085,560.512Zm8.408-33.139a14.885,14.885,0,0,1,3.4,29.37l-11.448,2.707-6.85-28.965,11.448-2.707A14.992,14.992,0,0,1,1080.493,527.374Z" transform="translate(-1064.531 -526.411)" fill="#313b5b"/>
    </g>
    <g id="Group_9" data-name="Group 9" transform="translate(24.642 11.182)">
      <path id="Path_13" data-name="Path 13" d="M1188.229,563.1c1.953,8.258,5.646,14.452,8.248,13.837s3.129-7.808,1.176-16.065-5.645-14.452-8.248-13.837S1186.276,554.847,1188.229,563.1Z" transform="translate(-1186.561 -546.511)" fill="#d5e7fe"/>
      <path id="Path_14" data-name="Path 14" d="M1193.871,575.229a2.129,2.129,0,0,0,.5-.058c1.5-.355,2.424-2.291,2.667-5.6a38.124,38.124,0,0,0-1.133-11.044c-1.767-7.473-5.43-15.007-8.828-14.194-3.363.8-3.3,9.169-1.534,16.645h0C1187.22,568.085,1190.645,575.229,1193.871,575.229Zm-6.323-29.988c2.047,0,5.48,5.319,7.416,13.508a37.153,37.153,0,0,1,1.109,10.751c-.2,2.726-.92,4.5-1.927,4.734-2,.448-5.649-4.945-7.669-13.479s-1.187-15.011.819-15.485A1.11,1.11,0,0,1,1187.548,545.241Zm-1.54,15.625h0Z" transform="translate(-1184.342 -544.272)" fill="#313b5b"/>
    </g>
    <g id="Group_10" data-name="Group 10" transform="translate(0 12.217)">
      <path id="Path_15" data-name="Path 15" d="M1187.518,574.5a13.553,13.553,0,0,0,16.589,9.62l14.261-3.8,4.656-1.229v-.016c.777-2.927.583-7.955-.727-13.452-1.391-5.95-3.7-10.816-5.853-12.854l-4.139,1.1-15.166,4.042A13.541,13.541,0,0,0,1187.518,574.5Z" transform="translate(-1186.568 -552.288)" fill="#313b5b"/>
      <path id="Path_16" data-name="Path 16" d="M1198.385,582.846a14.144,14.144,0,0,0,3.636-.478l18.915-5.028a.482.482,0,0,0,.359-.466c.807-3,.529-8.246-.742-13.58-1.374-5.876-3.67-10.893-5.99-13.092a.48.48,0,0,0-.455-.116l-19.3,5.141a14.046,14.046,0,0,0,3.581,27.619Zm22.026-6.365-18.639,4.955a13.071,13.071,0,0,1-16-9.278h0a13.06,13.06,0,0,1,9.28-16l19.039-5.071c2.1,2.147,4.25,6.973,5.525,12.428C1220.82,568.562,1221.118,573.489,1220.412,576.482Z" transform="translate(-1184.36 -550.07)" fill="#313b5b"/>
    </g>
    <g id="Group_11" data-name="Group 11" transform="translate(22.442 20.671)">
      <path id="Path_17" data-name="Path 17" d="M1211.455,616.6a.48.48,0,0,0,.429-.263l9.235-18.218a.481.481,0,1,0-.858-.436l-9.234,18.218a.481.481,0,0,0,.21.647A.488.488,0,0,0,1211.455,616.6Z" transform="translate(-1210.974 -597.419)" fill="#313b5b"/>
    </g>
    <g id="Group_12" data-name="Group 12" transform="translate(14.984 20.671)">
      <path id="Path_18" data-name="Path 18" d="M1253.217,616.6a.481.481,0,0,0,.429-.263l9.236-18.217a.481.481,0,1,0-.858-.437l-9.236,18.217a.482.482,0,0,0,.211.648A.488.488,0,0,0,1253.217,616.6Z" transform="translate(-1252.735 -597.419)" fill="#313b5b"/>
    </g>
    <g id="Group_13" data-name="Group 13" transform="translate(7.543 20.671)">
      <path id="Path_19" data-name="Path 19" d="M1294.9,616.6a.48.48,0,0,0,.429-.263l9.234-18.218a.481.481,0,1,0-.858-.436l-9.234,18.218a.481.481,0,0,0,.211.647A.487.487,0,0,0,1294.9,616.6Z" transform="translate(-1294.423 -597.419)" fill="#313b5b"/>
    </g>
    <g id="Group_14" data-name="Group 14" transform="translate(22.442 20.671)">
      <path id="Path_20" data-name="Path 20" d="M1211.455,616.6a.48.48,0,0,0,.429-.263l9.235-18.218a.481.481,0,1,0-.858-.436l-9.234,18.218a.481.481,0,0,0,.21.647A.488.488,0,0,0,1211.455,616.6Z" transform="translate(-1210.974 -597.419)" fill="#d5e7fe"/>
    </g>
    <g id="Group_15" data-name="Group 15" transform="translate(14.984 20.671)">
      <path id="Path_21" data-name="Path 21" d="M1253.217,616.6a.481.481,0,0,0,.429-.263l9.236-18.217a.481.481,0,1,0-.858-.437l-9.236,18.217a.482.482,0,0,0,.211.648A.488.488,0,0,0,1253.217,616.6Z" transform="translate(-1252.735 -597.419)" fill="#d5e7fe"/>
    </g>
    <g id="Group_16" data-name="Group 16" transform="translate(7.543 20.671)">
      <path id="Path_22" data-name="Path 22" d="M1294.9,616.6a.48.48,0,0,0,.429-.263l9.234-18.218a.481.481,0,1,0-.858-.436l-9.234,18.218a.481.481,0,0,0,.211.647A.487.487,0,0,0,1294.9,616.6Z" transform="translate(-1294.423 -597.419)" fill="#d5e7fe"/>
    </g>
    <g id="Group_17" data-name="Group 17" transform="translate(5.122 22.101)">
      <path id="Path_23" data-name="Path 23" d="M1247.33,609.745a.438.438,0,0,0,.079-.007l20.148-3.352a.482.482,0,1,0-.158-.95l-20.147,3.352a.482.482,0,0,0,.079.957Z" transform="translate(-1246.847 -605.43)" fill="#d5e7fe"/>
    </g>
    <g id="Group_18" data-name="Group 18" transform="translate(9.539 28.107)">
      <path id="Path_24" data-name="Path 24" d="M1222.592,643.385a.443.443,0,0,0,.079-.007l20.148-3.352a.482.482,0,1,0-.158-.95l-20.148,3.352a.482.482,0,0,0,.079.957Z" transform="translate(-1222.109 -639.07)" fill="#d5e7fe"/>
    </g>
    <g id="Group_19" data-name="Group 19" transform="translate(13.948 34.103)">
      <path id="Path_25" data-name="Path 25" d="M1197.906,676.967a.433.433,0,0,0,.079-.007l20.146-3.351a.482.482,0,1,0-.158-.951l-20.146,3.351a.482.482,0,0,0,.079.957Z" transform="translate(-1197.424 -672.652)" fill="#d5e7fe"/>
    </g>
    <g id="Group_20" data-name="Group 20" transform="translate(107.071 41.784)">
      <path id="Path_26" data-name="Path 26" d="M571.808,786.53a.472.472,0,0,0,.178-.035l1.028-.407c5.824-2.3,10.032-3.969,8.61-11.832-2.012-11.114-13.5-16.628-23.625-21.492a99.325,99.325,0,0,1-9.891-5.188c-4.742-3.007-12.507-9.288-11.218-17.57,1.184-7.585,4.417-11.965,9.88-13.388a.481.481,0,1,0-.241-.931c-5.8,1.509-9.359,6.276-10.591,14.171-1.374,8.825,6.713,15.4,11.654,18.532a100.056,100.056,0,0,0,9.989,5.243c9.923,4.765,21.171,10.166,23.095,20.795,1.284,7.085-2.217,8.47-8.017,10.765l-1.03.409a.482.482,0,0,0,.179.929Z" transform="translate(-535.782 -715.67)" fill="#313b5b"/>
    </g>
    <g id="Group_21" data-name="Group 21" transform="translate(73.067 16.616)">
      <path id="Path_27" data-name="Path 27" d="M709.714,599.166a.493.493,0,0,0,.1-.011l.2-.046c6.474-1.5,8.7-7.271,8.036-12-.666-4.7-4.362-9.579-10.99-9.236-8.625.461-18.294,7.368-25.353,12.411l-.339.241c-4.769,3.18-11.05,6.247-17.214,1.623-3.867-2.9-3.1-6.285-2.219-10.205a17.148,17.148,0,0,0,.61-6.843.482.482,0,1,0-.948.173,16.44,16.44,0,0,1-.6,6.459c-.879,3.89-1.788,7.914,2.578,11.188,6.649,4.986,13.3,1.764,18.341-1.6l.35-.25c6.963-4.974,16.5-11.786,24.847-12.233,6.082-.331,9.357,3.992,9.983,8.41.628,4.448-1.385,9.55-7.3,10.923l-.184.042a.482.482,0,0,0,.1.952Z" transform="translate(-660.269 -574.708)" fill="#313b5b"/>
    </g>
  </g>
  <g id="Group_23" data-name="Group 23" transform="translate(154.874 222.309)">
    <path id="Path_28" data-name="Path 28" d="M1266.5,1476.807l28.268,6.454s-9.732,19.768-37.514,25.275l-7.717-23.661Z" transform="translate(-1249.062 -1476.325)" fill="#313b5b"/>
    <path id="Path_29" data-name="Path 29" d="M1255.04,1506.8a.491.491,0,0,0,.094-.009,58.692,58.692,0,0,0,29.414-14.826,42.374,42.374,0,0,0,8.439-10.709.483.483,0,0,0-.326-.682l-28.268-6.454a.469.469,0,0,0-.315.035l-16.963,8.068a.481.481,0,0,0-.25.584l7.718,23.661A.481.481,0,0,0,1255.04,1506.8Zm36.788-25.429c-1.809,3.178-12.122,19.4-36.462,24.39l-7.454-22.851,16.431-7.813Z" transform="translate(-1246.84 -1474.103)" fill="#313b5b"/>
  </g>
  <g id="Group_24" data-name="Group 24" transform="translate(1.08 103.008)">
    <path id="Path_30" data-name="Path 30" d="M1397.317,843.039s17.548,18.206,28.993,52.224,22.255,39.105,22.255,39.105-22.523-5.723-38.921,20.03l7.765,28.386H1299.139l5.4-41.74s-36.88,1.59-55-19.076c0,0,12.315-113.417,44.96-113.356l43.839,25.926Z" transform="translate(-1249.061 -808.131)" fill="#313b5b"/>
    <path id="Path_31" data-name="Path 31" d="M1296.928,981.049H1415.2a.481.481,0,0,0,.465-.609l-7.708-28.18c8.344-13.006,18.273-17.66,25.148-19.271a30.638,30.638,0,0,1,13.134-.372.482.482,0,0,0,.326-.9c-.107-.052-10.8-5.508-22-38.824-11.35-33.731-28.927-52.222-29.1-52.4a.473.473,0,0,0-.276-.143l-58.883-8.487-43.758-25.878a.506.506,0,0,0-.271-.067c-13.777,0-25.607,19.182-35.164,57.02a476.907,476.907,0,0,0-10.25,56.767.483.483,0,0,0,.118.37c16.83,19.194,50.054,19.348,54.815,19.254l-5.333,41.181a.482.482,0,0,0,.478.544Zm117.639-.964H1297.476l5.335-41.194a.48.48,0,0,0-.123-.388.5.5,0,0,0-.376-.156c-.361.018-36.667,1.336-54.48-18.752.625-5.493,13.241-112.467,44.327-112.717l43.727,25.859a.472.472,0,0,0,.175.062l58.811,8.476c1.514,1.629,17.968,19.818,28.771,51.925,8.766,26.049,17.112,35.211,20.691,38.143-6.062-.667-23.852-.552-37.307,20.579a.482.482,0,0,0-.058.386Z" transform="translate(-1246.848 -805.914)" fill="#313b5b"/>
  </g>
  <g id="Group_25" data-name="Group 25" transform="translate(161.183 228.293)">
    <path id="Path_32" data-name="Path 32" d="M1246.839,1510.315l13.733,48.887h-37.219l-7.765-28.386S1227.585,1510.622,1246.839,1510.315Z" transform="translate(-1215.109 -1509.835)" fill="#d5e7fe"/>
    <path id="Path_33" data-name="Path 33" d="M1221.141,1557.467h37.219a.481.481,0,0,0,.463-.612l-13.734-48.887a.479.479,0,0,0-.463-.352h-.008c-19.3.308-31.534,20.532-31.655,20.737a.477.477,0,0,0-.051.372l7.765,28.386A.484.484,0,0,0,1221.141,1557.467Zm36.583-.964h-36.216l-7.612-27.83c1.218-1.939,12.755-19.563,30.366-20.085Z" transform="translate(-1212.894 -1507.616)" fill="#313b5b"/>
  </g>
  <g id="Group_36" data-name="Group 36" transform="translate(1.158 103.085)">
    <g id="Group_35" data-name="Group 35" transform="translate(0 0)" clip-path="url(#clip-path)">
      <path id="Path_34" data-name="Path 34" d="M1251.872,1462.707s-19.156-4.908-38.385,19.7l-2.216-13.627s17.174-19.473,46.762-17.306C1258.034,1451.477,1262.017,1462.907,1251.872,1462.707Z" transform="translate(-1052.544 -1336.153)" fill="#0093de"/>
      <g id="Group_26" data-name="Group 26" transform="translate(149.999 93.042)">
        <path id="Path_35" data-name="Path 35" d="M1454.825,1396.936a.5.5,0,0,0,.137-.02.482.482,0,0,0,.324-.6c-3.644-12.269-14.366-67.9-14.475-68.465a.481.481,0,1,0-.945.182c.107.562,10.84,56.243,14.5,68.558A.483.483,0,0,0,1454.825,1396.936Z" transform="translate(-1439.857 -1327.462)" fill="#d5e7fe"/>
      </g>
      <path id="Path_36" data-name="Path 36" d="M1595.878,801.352s-17.632,13.583-61.122,7.18-67.218-46.861-67.218-46.861l61.728-8.177Z" transform="translate(-1435.371 -762.929)" fill="#0093de"/>
      <g id="Group_27" data-name="Group 27" transform="translate(157.009 46.501)">
        <path id="Path_37" data-name="Path 37" d="M1347.712,1112.9a50.758,50.758,0,0,0,8.678-.9.481.481,0,0,0,.181-.877,4.56,4.56,0,0,0-1.357-.584,6.463,6.463,0,0,0,2.215-3.069,13.786,13.786,0,0,0,.482-5.59,51.639,51.639,0,0,0-6.487-21.913,14.476,14.476,0,0,0-4.6-5.367c-2.7-1.678-5.954-1.718-9.364-1.424,3.628-3.255,4.776-4.832,4.206-5.728a1.3,1.3,0,0,0-1.167-.666c-1.449.056-3.629,2.805-6.476,8.17a51.577,51.577,0,0,0-2.557,5.373,35.738,35.738,0,0,0-.433,19.235,21.123,21.123,0,0,0,3.918,8.28C1338.128,1111.717,1342.763,1112.9,1347.712,1112.9Zm6.651-1.54c-6.988,1.067-14.352,1.126-18.671-4.13a20.168,20.168,0,0,1-3.73-7.911,34.766,34.766,0,0,1,.422-18.717,53.979,53.979,0,0,1,2.485-5.2h0c.256-.481.5-.934.742-1.364a.5.5,0,0,0,.469.239c3.781-.4,7.409-.617,10.232,1.14a13.594,13.594,0,0,1,4.274,5.024,50.7,50.7,0,0,1,6.365,21.5,12.936,12.936,0,0,1-.429,5.2,4.918,4.918,0,0,1-3.4,3.3h0a.482.482,0,0,0,.188.945A3.481,3.481,0,0,1,1354.363,1111.363Zm-13.81-43.613c.061,0,.168.018.3.219.03.23-.34,1.239-4.642,5.034,2.211-3.788,3.662-5.227,4.327-5.252Z" transform="translate(-1329.916 -1066.787)" fill="#d5e7fe"/>
      </g>
      <g id="Group_28" data-name="Group 28" transform="translate(-26.144 17.387)">
        <path id="Path_38" data-name="Path 38" d="M2212.834,965.218a2.766,2.766,0,0,0,.935-.156,7.933,7.933,0,0,0,2.955-2.262c.376-.4.764-.8,1.168-1.151,2.141-1.845,5.1-2.645,7.969-3.418a31.475,31.475,0,0,0,5.767-1.962,24.4,24.4,0,0,0,10.436-9.925c3.849-6.964,3.845-15.477-.013-23.971a45.2,45.2,0,0,0-6.705-10.453,31.756,31.756,0,0,0-4.159-3.842,26.166,26.166,0,0,1-4.36-4.146.052.052,0,0,0-.009-.012.481.481,0,1,0-.768.579.061.061,0,0,0,.009.013c1.609,2.133,3.338,4.216,5.143,6.2-4.4,1.573-8.292,5.362-11.878,11.551a71.781,71.781,0,0,0-9.488,38.529l-22.438,3.152h0l-.284.041a.482.482,0,0,0,.066.959h.005a134.715,134.715,0,0,0,22.583-2.222,2.055,2.055,0,0,0,.554,1.386A3.425,3.425,0,0,0,2212.834,965.218Zm18.6-55.689a25.7,25.7,0,0,1,3.176,3.012,44.325,44.325,0,0,1,6.563,10.229c3.728,8.21,3.744,16.416.046,23.105A23.429,23.429,0,0,1,2231.2,955.4a30.622,30.622,0,0,1-5.591,1.894c-2.968.8-6.037,1.63-8.344,3.619-.441.379-.845.806-1.239,1.218a7.113,7.113,0,0,1-2.58,2.019,2.4,2.4,0,0,1-2.4-.684.985.985,0,0,1-.205-1.142.7.7,0,0,1-.025-1.147,70.778,70.778,0,0,1,9.342-38.438c3.651-6.3,7.591-10.016,12.04-11.349a.481.481,0,0,0,.216-.789Q2231.921,910.072,2231.435,909.529Zm-22.414,52.347q-5.05.91-10.178,1.43Z" transform="translate(-2186.698 -903.726)" fill="#d5e7fe"/>
      </g>
      <g id="Group_29" data-name="Group 29" transform="translate(31.112 101.923)">
        <path id="Path_39" data-name="Path 39" d="M2039.857,1408.292a38.829,38.829,0,0,0,9.481-1.348.48.48,0,0,0,.329-.292c.371-.944.732-1.892,1.093-2.84l.74-1.928a5.165,5.165,0,0,1,.211-.483c.079.217.16.5.217.7.227.8.406,1.437.971,1.441h.006c.5,0,.756-.52,1.023-1.417.977-3.267,2.5-15.433,3.236-21.279.194-1.536.349-2.761.388-2.989a.541.541,0,0,0,.022-.157.48.48,0,0,0-.461-.467,25.161,25.161,0,0,0-19.987,7.955c-2.5,2.689-8.584,11.317-8.819,16.713a4.588,4.588,0,0,0,1.028,3.4,6.9,6.9,0,0,0,2.779,1.682A22.042,22.042,0,0,0,2039.857,1408.292Zm9-2.222c-6.726,1.674-11.946,1.677-16.408.009a6.031,6.031,0,0,1-2.4-1.427,3.657,3.657,0,0,1-.779-2.708c.22-5.073,6.214-13.572,8.562-16.1h0a24.419,24.419,0,0,1,18.713-7.667c-.081.509-.18,1.3-.339,2.549-.73,5.821-2.251,17.933-3.2,21.125-.028.092-.053.172-.077.245-.026-.089-.053-.178-.073-.256-.245-.861-.455-1.606-1.08-1.634-.527-.066-.9.623-1.174,1.332l-.74,1.93C2049.529,1404.336,2049.2,1405.2,2048.861,1406.07Z" transform="translate(-2028.301 -1377.204)" fill="#d5e7fe"/>
      </g>
      <g id="Group_30" data-name="Group 30" transform="translate(104.32 107.046)">
        <path id="Path_40" data-name="Path 40" d="M1562.583,1446.468a29.286,29.286,0,0,0,3.171-.172c2.7-.294,9.225-1.548,11.617-6.82,3.647-8.042-2.872-20.239-8.666-26.331-7.014-7.375-16.538-9.284-24.87-4.982a18.4,18.4,0,0,0-7.4,7.174h0a16.476,16.476,0,0,0-2.083,10.942,20.852,20.852,0,0,0,5.5,10.311A31.333,31.333,0,0,0,1562.583,1446.468Zm-9.631-39.6c5.377,0,10.715,2.379,15.055,6.943,5.448,5.727,11.91,17.717,8.488,25.268-2.189,4.82-8.313,5.983-10.846,6.26a30.271,30.271,0,0,1-25.094-9.4,19.906,19.906,0,0,1-5.258-9.823,15.507,15.507,0,0,1,1.971-10.3h0a17.422,17.422,0,0,1,7.01-6.8A18.819,18.819,0,0,1,1552.951,1406.867Z" transform="translate(-1534.129 -1405.896)" fill="#d5e7fe"/>
      </g>
      <g id="Group_31" data-name="Group 31" transform="translate(68.591 52.984)">
        <path id="Path_41" data-name="Path 41" d="M1750.233,1138.086c4.4,0,10.511-.387,12.839-3.7,1.349-1.917.969-4.37.621-5.663-2.388-8.891-8.615-16.218-17.532-20.629-5.135-2.542-19.911-8.01-26.55-2.864h0a7.907,7.907,0,0,0-2.861,4.711,10.426,10.426,0,0,0,.525,5.576c3.182,9.567,12.972,16.716,20.387,19.929a31.859,31.859,0,0,0,12.552,2.643Zm-22.994-34.017c6.8,0,15.185,3.25,18.493,4.887,8.666,4.287,14.715,11.4,17.031,20.015.3,1.13.644,3.263-.478,4.858-2.072,2.95-7.865,3.293-12.05,3.293h-.021a30.883,30.883,0,0,1-12.168-2.563c-7.234-3.135-16.773-10.084-19.856-19.35a9.525,9.525,0,0,1-.5-5.064,6.971,6.971,0,0,1,2.51-4.155h0A11.4,11.4,0,0,1,1727.239,1104.069Z" transform="translate(-1716.57 -1103.097)" fill="#d5e7fe"/>
      </g>
      <g id="Group_32" data-name="Group 32" transform="translate(33.527 63.957)">
        <path id="Path_42" data-name="Path 42" d="M2115.217,1183.314a4.748,4.748,0,0,0,3.777-2.047,11.171,11.171,0,0,0,1.756-3.863c.026-.1,2.467-10.206-.444-12.428-.832-.634-1.942-.55-3.3.257a17.338,17.338,0,0,0-7.062,8.128h0a8.354,8.354,0,0,0-.423,4.781,6.684,6.684,0,0,0,4.71,5.064A4.586,4.586,0,0,0,2115.217,1183.314Zm3.817-17.79a1.1,1.1,0,0,1,.686.218c1.858,1.418.811,8.828.1,11.405a10.267,10.267,0,0,1-1.591,3.531,3.608,3.608,0,0,1-3.79,1.585,5.689,5.689,0,0,1-3.977-4.336,7.391,7.391,0,0,1,.386-4.232,16.521,16.521,0,0,1,6.65-7.635A3.171,3.171,0,0,1,2119.033,1165.524Z" transform="translate(-2109.343 -1164.556)" fill="#d5e7fe"/>
      </g>
      <g id="Group_33" data-name="Group 33" transform="translate(136.657 51.635)">
        <path id="Path_43" data-name="Path 43" d="M1545.978,1109.827a4.223,4.223,0,0,0,2.117-.584c2.268-1.3,3.679-4.556,3.732-6.95.056-2.52-1.109-5.646-3.156-6.511-.928-.4-2.424-.486-4.212,1.331a12.479,12.479,0,0,0-2.371,3.551h0c-1.724,3.829-1.129,7.017,1.592,8.526A4.723,4.723,0,0,0,1545.978,1109.827Zm1.55-13.316a1.963,1.963,0,0,1,.768.158c1.47.622,2.622,3.136,2.567,5.6-.047,2.126-1.276,5-3.248,6.135a3.331,3.331,0,0,1-3.468-.06c-3.312-1.839-1.741-6.043-1.182-7.287a11.634,11.634,0,0,1,2.181-3.272A3.518,3.518,0,0,1,1547.528,1096.511Z" transform="translate(-1541.116 -1095.546)" fill="#d5e7fe"/>
      </g>
      <g id="Group_34" data-name="Group 34" transform="translate(31.684 16.141)">
        <path id="Path_44" data-name="Path 44" d="M2134.941,907.853c.125,0,.25-.007.375-.018a4.289,4.289,0,0,0,3.589-3.857c.336-3.292-2.663-6.135-5.757-6.983-2.26-.615-4.1-.057-4.8,1.461a4.374,4.374,0,0,0-.235,2.54C2128.567,903.805,2131.649,907.852,2134.941,907.853Zm-3.51-10.137a5.611,5.611,0,0,1,1.46.209c2.708.741,5.339,3.172,5.053,5.954a3.3,3.3,0,0,1-2.72,3c-2.778.308-5.755-3.517-6.157-6.032a3.45,3.45,0,0,1,.156-1.983h0A2.241,2.241,0,0,1,2131.431,897.716Z" transform="translate(-2128.035 -896.749)" fill="#d5e7fe"/>
      </g>
      <path id="Path_45" data-name="Path 45" d="M2112.212,1367.558,2077.6,1387.67l-32.247-47.468,3.006-12.881s29.306,27.386,66.256,28.465Z" transform="translate(-2057.27 -1234.304)" fill="#0093de"/>
    </g>
  </g>
  <g id="Group_37" data-name="Group 37" transform="translate(1.08 103.008)">
    <path id="Path_47" data-name="Path 47" d="M1296.928,981.049H1415.2a.481.481,0,0,0,.465-.609l-7.708-28.18c8.344-13.006,18.273-17.66,25.148-19.271a30.638,30.638,0,0,1,13.134-.372.482.482,0,0,0,.326-.9c-.107-.052-10.8-5.508-22-38.824-11.35-33.731-28.927-52.222-29.1-52.4a.473.473,0,0,0-.276-.143l-58.883-8.487-43.758-25.878a.506.506,0,0,0-.271-.067c-13.777,0-25.607,19.182-35.164,57.02a476.907,476.907,0,0,0-10.25,56.767.483.483,0,0,0,.118.37c16.83,19.194,50.054,19.348,54.815,19.254l-5.333,41.181a.482.482,0,0,0,.478.544Zm117.639-.964H1297.476l5.335-41.194a.48.48,0,0,0-.123-.388.5.5,0,0,0-.376-.156c-.361.018-36.667,1.336-54.48-18.752.625-5.493,13.241-112.467,44.327-112.717l43.727,25.859a.472.472,0,0,0,.175.062l58.811,8.476c1.514,1.629,17.968,19.818,28.771,51.925,8.766,26.049,17.112,35.211,20.691,38.143-6.062-.667-23.852-.552-37.307,20.579a.482.482,0,0,0-.058.386Z" transform="translate(-1246.848 -805.914)" fill="#313b5b"/>
  </g>
  <g id="Group_38" data-name="Group 38" transform="translate(101.252 10.864)">
    <path id="Path_48" data-name="Path 48" d="M1612.33,327.014a.476.476,0,0,0,.372-.177c.286-.349,6.956-8.656,5.87-18.365-.6-5.332-3.443-10.025-8.461-13.949-15.451-12.087-31.793,2.951-31.957,3.105a.481.481,0,1,0,.659.7c.158-.147,15.9-14.616,30.7-3.049,4.8,3.757,7.528,8.228,8.1,13.291,1.046,9.3-5.59,17.573-5.655,17.656a.481.481,0,0,0,.373.786Z" transform="translate(-1578.003 -289.826)" fill="#0093de"/>
  </g>
  <g id="Group_39" data-name="Group 39" transform="translate(97.449 12.071)">
    <path id="Path_49" data-name="Path 49" d="M1501.96,391.356a17.661,17.661,0,0,0,4.478,3.072,201.284,201.284,0,0,0,29.055,1.536l4.123-7.405v7.276c5.254-.194,9.959-.566,13.937-1,18.578-46.516-11.948-64.091-11.948-64.091s4.576-17.236-6.645-27.082c-6.4-5.61-14.422-4.818-20.13-3.088a34.1,34.1,0,0,0-7.26,3.088l-1.277,20.081Z" transform="translate(-1501.481 -298.808)" fill="#0093de"/>
    <path id="Path_50" data-name="Path 50" d="M1529.666,394.258q1.942,0,3.888-.037a.485.485,0,0,0,.412-.247l3.22-5.784v5.421a.482.482,0,0,0,.147.347.448.448,0,0,0,.352.135c4.823-.179,9.524-.517,13.973-1.006a.483.483,0,0,0,.4-.3c17.5-43.817-8.655-62.429-11.845-64.494a37.034,37.034,0,0,0,.815-9.648c-.344-7.382-3.006-13.458-7.693-17.573-6.607-5.789-14.84-4.929-20.588-3.187a34.32,34.32,0,0,0-7.37,3.138.481.481,0,0,0-.229.38l-5.61,87.7a.485.485,0,0,0,.143.377,18.043,18.043,0,0,0,4.6,3.158.475.475,0,0,0,.156.047A200.441,200.441,0,0,0,1529.666,394.258Zm3.592-1a199.061,199.061,0,0,1-28.625-1.526,17.245,17.245,0,0,1-4.125-2.8l5.58-87.218a34.872,34.872,0,0,1,6.931-2.913c5.516-1.67,13.4-2.508,19.675,2.989,10.861,9.532,6.541,26.428,6.5,26.6a.482.482,0,0,0,.224.541c.3.173,29.824,17.859,11.849,63.225-4.187.453-8.6.773-13.115.951v-6.776a.482.482,0,0,0-.9-.234Z" transform="translate(-1499.532 -296.584)" fill="#0093de"/>
  </g>
  <g id="Group_44" data-name="Group 44" transform="translate(97.526 12.148)">
    <g id="Group_43" data-name="Group 43" transform="translate(0 0)" clip-path="url(#clip-path-2)">
      <g id="Group_40" data-name="Group 40" transform="translate(15.421 4.279)">
        <path id="Path_51" data-name="Path 51" d="M1561.1,418.406a.481.481,0,0,0,.427-.258c18.236-34.679-5.218-65.787-7.4-68.557.516-1.966,3.478-14.586-3.228-22.266-7.381-8.451-19.353-6.03-19.47-6.005a.482.482,0,0,0,.2.943c.113-.024,11.544-2.32,18.544,5.7,6.792,7.778,3,21.472,2.962,21.61a.484.484,0,0,0,.092.441c.263.316,26.159,32.112,7.449,67.69a.482.482,0,0,0,.427.706Z" transform="translate(-1531.049 -320.981)" fill="#313b5b"/>
      </g>
      <g id="Group_41" data-name="Group 41" transform="translate(14.246 75.438)">
        <path id="Path_52" data-name="Path 52" d="M1676.265,744.635a.467.467,0,0,0,.254-.074c13.335-8.313,11.943-24.428,11.928-24.59a.482.482,0,0,0-.96.092c.015.156,1.341,15.688-11.476,23.681a.482.482,0,0,0,.254.89Z" transform="translate(-1675.784 -719.537)" fill="#313b5b"/>
      </g>
      <g id="Group_42" data-name="Group 42" transform="translate(24.467 69.022)">
        <path id="Path_53" data-name="Path 53" d="M1640.3,715.116a.475.475,0,0,0,.254-.074c13.4-8.354,6.312-30.881,6.24-31.107a.482.482,0,0,0-.917.3c.072.219,6.93,22.038-5.83,29.995a.481.481,0,0,0,.254.89Z" transform="translate(-1639.813 -683.601)" fill="#313b5b"/>
      </g>
    </g>
  </g>
  <g id="Group_45" data-name="Group 45" transform="translate(56.368 0)">
    <path id="Path_55" data-name="Path 55" d="M1720.333,265.668a.435.435,0,0,0,.077-.006.483.483,0,0,0,.4-.552c-.043-.26-3.969-26.062,16.465-32.939,18.714-6.3,31.942.805,41.614,22.364a.483.483,0,0,0,.881-.4c-9.918-22.1-23.521-29.372-42.8-22.882-8.785,2.956-14.53,9.788-16.612,19.753a43.957,43.957,0,0,0-.5,14.253A.483.483,0,0,0,1720.333,265.668Z" transform="translate(-1719.499 -228.975)" fill="#0093de"/>
  </g>
  <g id="Group_46" data-name="Group 46" transform="translate(46.041 69.566)">
    <path id="Path_56" data-name="Path 56" d="M1571.851,659.629V621.3h34.925V666.84l32.617,22.331s-57.455,20-102.815-34.427C1536.578,654.744,1561.533,656.14,1571.851,659.629Z" transform="translate(-1536.099 -620.819)" fill="#d5e7fe"/>
    <path id="Path_57" data-name="Path 57" d="M1611.442,691.023c15.3,0,25.764-3.57,25.886-3.612a.482.482,0,0,0,.115-.853l-32.41-22.188V619.086a.482.482,0,0,0-.482-.482h-34.924a.482.482,0,0,0-.482.482V656.75c-10.615-3.32-34.517-4.689-34.764-4.7a.482.482,0,0,0-.4.789c23.536,28.245,50.374,36.143,68.746,37.8C1605.769,690.908,1608.685,691.023,1611.442,691.023Zm24.636-4.23a92.788,92.788,0,0,1-33.306,2.877c-17.99-1.627-44.19-9.314-67.327-36.591,4.966.321,25.128,1.781,34.027,4.791a.493.493,0,0,0,.435-.065.481.481,0,0,0,.2-.391V619.567h33.961v45.057a.483.483,0,0,0,.209.4Z" transform="translate(-1533.873 -618.604)" fill="#313b5b"/>
  </g>
  <path id="Path_58" data-name="Path 58" d="M1740.62,716.747v14.738s-13.192.535-21.353-13.922Z" transform="translate(-1623.9 -629.659)" fill="#313b5b"/>
  <path id="Path_59" data-name="Path 59" d="M1646.384,358.621c7.007-1.3,22.995.652,27.673,17.209,5.152,18.234,10.444,44.087-5.888,50.494s-37.579.876-42.075-19.3S1612.107,364.991,1646.384,358.621Z" transform="translate(-1544.979 -335.204)" fill="#d5e7fe"/>
  <g id="Group_47" data-name="Group 47" transform="translate(86.477 48.555)">
    <path id="Path_60" data-name="Path 60" d="M1758.7,513.712c6.534,0,11.95-4.957,12.187-5.177a.481.481,0,0,0,.047-.657c-.214-.262-5.307-6.435-12.229-6.921s-12.823,4.918-13.071,5.148a.481.481,0,0,0-.047.657c.214.263,5.307,6.434,12.227,6.92C1758.112,513.7,1758.408,513.712,1758.7,513.712Zm11.178-5.578c-1.356,1.129-6.436,4.976-12,4.586-5.58-.391-10.055-4.907-11.239-6.214,1.355-1.13,6.419-4.992,11.995-4.587S1768.7,506.827,1769.88,508.134Z" transform="translate(-1745.481 -500.927)" fill="#313b5b"/>
  </g>
  <g id="Group_48" data-name="Group 48" transform="translate(120.259 45.837)">
    <path id="Path_61" data-name="Path 61" d="M1635.985,498.223a13.849,13.849,0,0,0,1.91-.13.484.484,0,0,0,.41-.556c-.591-3.534-1.4-7.287-2.462-11.473a.475.475,0,0,0-.229-.3.487.487,0,0,0-.378-.041c-6.242,1.909-9.989,8.195-10.145,8.461a.482.482,0,0,0,.146.643A21.477,21.477,0,0,0,1635.985,498.223Zm1.286-1.026c-4.967.489-9.719-2.1-11.1-2.923.894-1.353,4.12-5.8,8.864-7.473C1635.985,490.567,1636.717,493.978,1637.271,497.2Z" transform="translate(-1625.025 -485.701)" fill="#313b5b"/>
  </g>
  <path id="Path_62" data-name="Path 62" d="M1627.731,492.626a16.506,16.506,0,0,1,6.655-4.228c.941,3.7,1.806,7.568,2.451,11.433a17.174,17.174,0,0,1-8.494-1.255A39.12,39.12,0,0,1,1627.731,492.626Z" transform="translate(-1503.774 -442.08)" fill="#313b5b"/>
  <path id="Path_63" data-name="Path 63" d="M1779.451,513.154a20.7,20.7,0,0,1,.417-9.165,13.184,13.184,0,0,1,3.875-.333,14.429,14.429,0,0,1,5.983,1.9,14.624,14.624,0,0,1-.656,8.837,23.081,23.081,0,0,1-6.151,1.026,12.829,12.829,0,0,1-3.1-.631C1779.674,514.249,1779.549,513.7,1779.451,513.154Z" transform="translate(-1684.074 -454.59)" fill="#313b5b"/>
  <path id="Path_64" data-name="Path 64" d="M1791.306,460.057a1.539,1.539,0,0,1-.7,1.176,10.968,10.968,0,0,1-7.318,2.154c-1.2-.1-3.163-1.132-1.93-2.464a6.9,6.9,0,0,1,3.1-1.5,16.594,16.594,0,0,1,4.29-.886C1789.795,458.51,1791.276,459.128,1791.306,460.057Z" transform="translate(-1685.603 -417.547)" fill="#313b5b"/>
  <path id="Path_65" data-name="Path 65" d="M1647.544,450.858a15.232,15.232,0,0,1,3.838-1.2c.137.412.3.792.419,1.224.245.868.49,1.759.734,2.66a10.4,10.4,0,0,1-5.335.574,1.543,1.543,0,0,1-1.174-.7C1645.608,452.59,1646.613,451.338,1647.544,450.858Z" transform="translate(-1522.72 -410.26)" fill="#313b5b"/>
  <path id="Path_66" data-name="Path 66" d="M1360.154,1547.958c43.234.582,143.753-1.762,143.753-1.762s-6.726-8.23-20.437-12.207a57.572,57.572,0,0,0-24.334-1.471l-87.147-12.968,1.956-15.1s-24.818,1.067-43.736-9.96c-.016,0-.032-.016-.048-.016C1330.162,1494.474,1316.936,1547.376,1360.154,1547.958Z" transform="translate(-1317.375 -1268.528)" fill="#d5e7fe"/>
  <g id="Group_49" data-name="Group 49" transform="translate(117.331 53.492)">
    <path id="Path_67" data-name="Path 67" d="M1679.356,545.748a.486.486,0,0,0,.23-.058c1.265-.685,5.36-3.057,4.959-4.876-.356-1.6-3.341-3.177-4.253-3.624l-1.56-8.217a.482.482,0,1,0-.946.181l1.607,8.455a.477.477,0,0,0,.269.346c1.407.655,3.72,2.068,3.943,3.067.166.747-2.181,2.579-4.477,3.821a.482.482,0,0,0,.23.906Z" transform="translate(-1677.776 -528.581)" fill="#313b5b"/>
  </g>
  <g id="Group_51" data-name="Group 51" transform="translate(112.943 73.733)">
    <path id="Path_68" data-name="Path 68" d="M1689.031,645.41c.892,1.146-.722,6.88-5.562,6.582a4.674,4.674,0,0,1-4.332-6.54C1679.544,644.786,1687.981,644.059,1689.031,645.41Z" transform="translate(-1678.251 -644.166)" fill="#313b5b"/>
    <path id="Path_69" data-name="Path 69" d="M1700.1,669.1s-2.077-5.041-7.595-1.431A5.982,5.982,0,0,0,1700.1,669.1Z" transform="translate(-1691.544 -662.003)" fill="#d5e7fe"/>
    <g id="Group_50" data-name="Group 50" transform="translate(0 0)">
      <path id="Path_70" data-name="Path 70" d="M1681.6,650.263a5.72,5.72,0,0,0,5.146-3.267c.839-1.589,1.031-3.353.447-4.1h0c-.8-1.029-4.109-1.006-6.015-.9-1.571.087-4.269.331-4.67.986a5.02,5.02,0,0,0,.147,4.553,5.133,5.133,0,0,0,4.565,2.719C1681.349,650.258,1681.475,650.263,1681.6,650.263Zm1.233-7.362c1.728,0,3.269.156,3.6.582h0a3.889,3.889,0,0,1-.54,3.063,4.815,4.815,0,0,1-4.613,2.743,4.218,4.218,0,0,1-3.771-2.2,4.125,4.125,0,0,1-.179-3.6A19.612,19.612,0,0,1,1682.833,642.9Zm3.98.287h0Z" transform="translate(-1676.035 -641.943)" fill="#313b5b"/>
    </g>
  </g>
  <g id="Group_52" data-name="Group 52" transform="translate(81.313 69.566)">
    <path id="Path_71" data-name="Path 71" d="M1871.094,653.85a.487.487,0,0,0,.375-.178c14.171-17.458-1.929-34.745-2.095-34.917a.481.481,0,1,0-.7.664c.158.166,15.674,16.852,2.042,33.644a.482.482,0,0,0,.071.679A.474.474,0,0,0,1871.094,653.85Z" transform="translate(-1868.544 -618.607)" fill="#0093de"/>
  </g>
  <g id="Group_53" data-name="Group 53" transform="translate(10.401 225.46)">
    <path id="Path_72" data-name="Path 72" d="M1373.914,1546.287c47.569,0,126.884-1.836,127.777-1.856a.481.481,0,0,0,.361-.787c-.147-.182-15.15-18.053-45.136-13.852l-90.139-13.539a.47.47,0,0,0-.548.4.481.481,0,0,0,.405.548l90.209,13.55a.531.531,0,0,0,.139,0c25.86-3.649,40.382,9.389,43.625,12.735-10.9.249-102.319,2.283-142.669,1.742-10.9-.146-19.1-3.694-24.376-10.544-11.747-15.248-5.228-42.074-5.162-42.343a.481.481,0,0,0-.35-.584.475.475,0,0,0-.583.35,79.541,79.541,0,0,0-1.9,15.625c-.177,8.048.933,19.358,7.232,27.537,5.465,7.1,13.92,10.77,25.131,10.921C1362.63,1546.259,1368.033,1546.287,1373.914,1546.287Z" transform="translate(-1325.547 -1491.747)" fill="#313b5b"/>
  </g>
  <g id="Group_54" data-name="Group 54" transform="translate(93.734 25.773)">
    <path id="Path_73" data-name="Path 73" d="M1634.74,441.665a37.172,37.172,0,0,0,13.523-2.543c16.629-6.524,11.487-32.274,6.175-51.074a25.206,25.206,0,0,0-11.331-14.654.482.482,0,0,0-.493.828,24.243,24.243,0,0,1,10.9,14.087c5.209,18.441,10.3,43.677-5.6,49.915-9.491,3.723-20.435,3.226-28.566-1.3a.482.482,0,1,0-.47.841A32.76,32.76,0,0,0,1634.74,441.665Z" transform="translate(-1618.629 -373.325)" fill="#313b5b"/>
  </g>
  <g id="Group_55" data-name="Group 55" transform="translate(21.004 2.236)">
    <path id="Path_74" data-name="Path 74" d="M1715.685,320.258l4.738-4.462-2.506,6.16a136.656,136.656,0,0,0,30.2,16.8l3.9-6.435-1.148,7.518a159.09,159.09,0,0,0,19.742,6.063c7.017-23.282-2.749-32.5-2.749-32.5l4.543-5.238s-8.44-26.484,10.623-28.553a45.276,45.276,0,0,0,5.982-1.035c13.387-3.331,16.427-10.348,16.427-10.348-.711-3.379-4.656-8.8-7.89-12.822-6.322-7.825-17.429-14.309-33.372-9.378-24.123,7.454-20.226,31.755-20.226,31.755-27.777,2.28-34.423,28.909-35.716,36.266Q1711.894,317.348,1715.685,320.258Z" transform="translate(-1707.752 -243.81)" fill="#0093de"/>
    <path id="Path_75" data-name="Path 75" d="M1768.394,344.073a.481.481,0,0,0,.461-.343c6.38-21.166-.871-30.781-2.559-32.654l4.257-4.906a.48.48,0,0,0,.1-.462c-.045-.145-4.534-14.525.723-22.6,2-3.072,5.194-4.867,9.492-5.333a45.784,45.784,0,0,0,6.047-1.045c13.463-3.35,16.625-10.329,16.753-10.623a.5.5,0,0,0,.03-.291c-.585-2.774-3.27-7.156-7.987-13.025-4.833-5.982-15.66-15.172-33.889-9.536-22.285,6.887-21.006,28.194-20.622,31.778a35.968,35.968,0,0,0-27.653,16.4,54.842,54.842,0,0,0-8,20.222.483.483,0,0,0,.153.441c2.414,2.175,4.93,4.273,7.482,6.233a.485.485,0,0,0,.625-.031l3.125-2.945-1.673,4.111a.481.481,0,0,0,.16.569,137.581,137.581,0,0,0,30.308,16.858.484.484,0,0,0,.593-.2l2.644-4.365-.783,5.126a.481.481,0,0,0,.305.522,159.984,159.984,0,0,0,19.8,6.082A.444.444,0,0,0,1768.394,344.073Zm1.257-38.333-4.37,5.036a.483.483,0,0,0,.032.666,17.751,17.751,0,0,1,3.9,7.382c1.372,4.629,2.275,12.563-1.15,24.192a159.379,159.379,0,0,1-18.875-5.8l1.089-7.133a.48.48,0,0,0-.312-.525.486.486,0,0,0-.576.2l-3.685,6.084a136.635,136.635,0,0,1-29.416-16.364l2.365-5.813a.482.482,0,0,0-.777-.532l-4.437,4.181c-2.349-1.819-4.67-3.753-6.9-5.756,5.538-30.807,28.356-35.041,35.235-35.606a.479.479,0,0,0,.339-.183.484.484,0,0,0,.1-.373c-.037-.239-3.54-23.978,19.894-31.219,17.684-5.471,28.174,3.428,32.852,9.22,4.462,5.553,7.14,9.855,7.757,12.459-.506.965-4.082,6.967-16.036,9.94a44.706,44.706,0,0,1-5.919,1.023c-4.6.5-8.03,2.44-10.2,5.767C1765.395,290.528,1769.028,303.664,1769.651,305.741Z" transform="translate(-1705.535 -241.5)" fill="#0093de"/>
  </g>
  <g id="Group_63" data-name="Group 63" transform="translate(21.082 2.313)">
    <g id="Group_62" data-name="Group 62" transform="translate(0 0)" clip-path="url(#clip-path-3)">
      <g id="Group_59" data-name="Group 59" transform="translate(52.425 3.744)">
        <g id="Group_56" data-name="Group 56" transform="translate(31.714)">
          <path id="Path_76" data-name="Path 76" d="M1714.785,286.77a.454.454,0,0,0,.077-.007.484.484,0,0,0,.4-.552c-1.374-8.493-13.5-22.549-14.016-23.144a.482.482,0,1,0-.726.633c.124.143,12.462,14.443,13.791,22.665A.483.483,0,0,0,1714.785,286.77Z" transform="translate(-1700.4 -262.902)" fill="#313b5b"/>
        </g>
        <g id="Group_57" data-name="Group 57" transform="translate(2.617 17.375)">
          <path id="Path_77" data-name="Path 77" d="M1712.635,392.207l.053,0a.483.483,0,0,0,.427-.531c-.673-6.21.992-11.652,4.688-15.324,3.832-3.8,9.5-5.489,15.953-4.744,12.078,1.394,19.984-10.523,20.063-10.644a.482.482,0,1,0-.809-.524c-.073.115-7.588,11.536-19.145,10.209-6.763-.779-12.7,1-16.741,5.019-3.909,3.882-5.672,9.6-4.968,16.111A.484.484,0,0,0,1712.635,392.207Z" transform="translate(-1712.004 -360.218)" fill="#313b5b"/>
        </g>
        <g id="Group_58" data-name="Group 58" transform="translate(0 64.56)">
          <path id="Path_78" data-name="Path 78" d="M1914.283,657.915a.472.472,0,0,0,.22-.054c5.723-2.944,8.375-9.618,7.666-19.3a60.939,60.939,0,0,0-2.778-13.739.483.483,0,0,0-.911.318c.089.25,8.6,25.174-4.417,31.867a.482.482,0,0,0,.22.91Z" transform="translate(-1913.802 -624.496)" fill="#313b5b"/>
        </g>
      </g>
      <g id="Group_60" data-name="Group 60" transform="translate(2.074 1.897)">
        <path id="Path_79" data-name="Path 79" d="M1735.487,328.7a.483.483,0,0,0,.482-.463c.779-19.649,10.228-29.821,18.019-34.894a42.217,42.217,0,0,1,16.945-6.391.482.482,0,0,0,.434-.5c-.009-.218-.724-21.885,18.117-30.705,16.4-7.685,35.3,6.926,35.495,7.075a.482.482,0,0,0,.595-.758c-.192-.15-19.549-15.12-36.5-7.19-17.9,8.383-18.674,27.977-18.676,31.176-4.014.576-33.963,6.1-35.393,42.15a.484.484,0,0,0,.463.5Z" transform="translate(-1735.006 -252.559)" fill="#313b5b"/>
      </g>
      <g id="Group_61" data-name="Group 61" transform="translate(14.81 5.086)">
        <path id="Path_80" data-name="Path 80" d="M1733.788,355.714a.469.469,0,0,0,.122-.016.484.484,0,0,0,.344-.587c-9.405-36.021,24.149-49.811,24.487-49.945a.485.485,0,0,0,.3-.476c-.013-.217-1.047-21.736,17.349-31.106,13.67-6.959,32.918,4.793,33.11,4.913a.482.482,0,1,0,.508-.819,58.563,58.563,0,0,0-11.62-5.2c-8.807-2.825-16.563-2.738-22.434.251-17.669,9-17.942,28.827-17.886,31.678-3.459,1.518-33.88,16-24.752,50.951A.481.481,0,0,0,1733.788,355.714Z" transform="translate(-1731.62 -270.417)" fill="#313b5b"/>
      </g>
    </g>
  </g>
  <g id="Group_67" data-name="Group 67" transform="translate(67.38 52.563)">
    <path id="Path_82" data-name="Path 82" d="M1889.977,532.379s-8.05-9.952-14.983-4.968-.66,21.3,14.577,18.859C1898.7,544.806,1889.977,532.379,1889.977,532.379Z" transform="translate(-1871.701 -525.544)" fill="#d5e7fe"/>
    <g id="Group_64" data-name="Group 64" transform="translate(6.127 6.543)">
      <path id="Path_83" data-name="Path 83" d="M1923.136,565.075a.462.462,0,0,0,.137-.02.481.481,0,0,0,.326-.6,6.923,6.923,0,0,0-3.272-4.03,5.4,5.4,0,0,0-4.618.264.482.482,0,0,0,.406.875,4.49,4.49,0,0,1,3.809-.264,6.044,6.044,0,0,1,2.751,3.429A.481.481,0,0,0,1923.136,565.075Z" transform="translate(-1915.429 -560.023)" fill="#313b5b"/>
    </g>
    <g id="Group_65" data-name="Group 65" transform="translate(0 0)">
      <path id="Path_84" data-name="Path 84" d="M1905.652,544.782a20.586,20.586,0,0,0,2.832-.2.481.481,0,1,0-.131-.954c-8.879,1.225-14.188-3.726-16.034-8.341-1.551-3.88-.826-7.759,1.8-9.65,6.489-4.667,14.25,4.783,14.327,4.88a.482.482,0,0,0,.749-.606c-.083-.1-8.422-10.244-15.637-5.056-3,2.156-3.856,6.493-2.138,10.792A14.866,14.866,0,0,0,1905.652,544.782Z" transform="translate(-1890.548 -523.378)" fill="#313b5b"/>
    </g>
    <g id="Group_66" data-name="Group 66" transform="translate(8.099 6.636)">
      <path id="Path_85" data-name="Path 85" d="M1937.1,567.046a.478.478,0,0,0,.382-.189,8.676,8.676,0,0,0,1.524-5.9.478.478,0,0,0-.54-.413.484.484,0,0,0-.416.54,7.821,7.821,0,0,1-1.333,5.185.482.482,0,0,0,.089.675A.475.475,0,0,0,1937.1,567.046Z" transform="translate(-1936.616 -560.542)" fill="#313b5b"/>
    </g>
  </g>
  <g id="Group_68" data-name="Group 68" transform="translate(229.327 148.724)">
    <path id="Path_86" data-name="Path 86" d="M862.62,1104.2v-37.382a2.161,2.161,0,0,0-2.161-2.161h-44.2a2.161,2.161,0,0,0-2.161,2.161v25.549a2.161,2.161,0,0,0,2.161,2.161h37.635Z" transform="translate(-813.615 -1064.177)" fill="#d5e7fe"/>
    <path id="Path_87" data-name="Path 87" d="M860.4,1102.468a.5.5,0,0,0,.173-.032.481.481,0,0,0,.309-.45V1064.6a2.646,2.646,0,0,0-2.642-2.643h-44.2a2.646,2.646,0,0,0-2.642,2.643v25.547a2.646,2.646,0,0,0,2.642,2.643h37.42l8.585,9.514A.48.48,0,0,0,860.4,1102.468Zm-2.161-39.544a1.681,1.681,0,0,1,1.679,1.68v36.128l-7.889-8.742a.48.48,0,0,0-.358-.159H814.042a1.682,1.682,0,0,1-1.679-1.68V1064.6a1.681,1.681,0,0,1,1.679-1.68Z" transform="translate(-811.4 -1061.961)" fill="#313b5b"/>
  </g>
  <g id="Group_69" data-name="Group 69" transform="translate(339.738 141.026)">
    <path id="Path_88" data-name="Path 88" d="M195.7,1061.085V1023.7a2.161,2.161,0,0,1,2.161-2.161h44.2a2.161,2.161,0,0,1,2.161,2.161v25.548a2.161,2.161,0,0,1-2.161,2.161H204.423Z" transform="translate(-195.214 -1021.061)" fill="#d5e7fe"/>
    <path id="Path_89" data-name="Path 89" d="M193.482,1059.353a.48.48,0,0,0,.357-.159l8.584-9.513h37.422a2.646,2.646,0,0,0,2.642-2.643v-25.549a2.645,2.645,0,0,0-2.642-2.642h-44.2a2.645,2.645,0,0,0-2.642,2.642v37.382a.481.481,0,0,0,.482.482Zm46.363-39.543a1.68,1.68,0,0,1,1.678,1.679v25.549a1.681,1.681,0,0,1-1.678,1.68H202.208a.48.48,0,0,0-.358.159l-7.887,8.742v-36.129a1.68,1.68,0,0,1,1.679-1.679Z" transform="translate(-193 -1018.846)" fill="#313b5b"/>
  </g>
  <path id="Path_90" data-name="Path 90" d="M910.635,1101.595c-1.853-7.869-10.635,0-10.635,0s-8.783-7.869-10.635,0c-2.076,8.819,10.635,15.259,10.635,15.259S912.711,1110.414,910.635,1101.595Z" transform="translate(-645.931 -942.921)" fill="#0093de"/>
  <path id="Path_91" data-name="Path 91" d="M299.841,1055.317a2.777,2.777,0,0,0-.568-2.009,1.788,1.788,0,0,0,.374-.61,2.027,2.027,0,0,0-.58-2.146,5.781,5.781,0,0,0-2.47-.984,8.461,8.461,0,0,0-2.292-.2c-.177-.008-.35-.054-.527-.055a12.376,12.376,0,0,0-2.888.207s1.2-5.738-2.1-8.923c-.921-.89-4.15-.932-3.981,1.864.155,2.563.661,2.807-.281,5.174-.474,1.192-.986,2.336-1.395,3.526a15.524,15.524,0,0,0-.557,2.027,18.838,18.838,0,0,0-.357,3.952,6.674,6.674,0,0,0,.687,3.629,4.919,4.919,0,0,0,3.376,1.761c2.074.367,4.213.054,6.3.353,5.7.815,6.457-1.473,6.57-2.192a1.154,1.154,0,0,0-.415-1.02,2.415,2.415,0,0,0,1-1.449,2.388,2.388,0,0,0-.26-1.789A2.493,2.493,0,0,0,299.841,1055.317Z" transform="translate(73.448 -895.247)" fill="#0093de"/>
  <g id="Group_70" data-name="Group 70" transform="translate(1.081 216.366)">
    <path id="Path_92" data-name="Path 92" d="M2108.974,1460.855a.482.482,0,0,0,.018-.963c-22.851-.875-36.489-5.957-43.9-10.068-8.019-4.443-10.68-8.732-10.707-8.775a.481.481,0,0,0-.824.5c.431.718,11.094,17.611,55.4,19.309Z" transform="translate(-2053.49 -1440.817)" fill="#313b5b"/>
  </g>
  <g id="Group_71" data-name="Group 71" transform="translate(53.754 194.897)">
    <path id="Path_93" data-name="Path 93" d="M2016.606,1376.5a.484.484,0,0,0,.477-.4l9-54.968a.483.483,0,0,0-.4-.553.471.471,0,0,0-.553.4l-9,54.969a.483.483,0,0,0,.4.553A.447.447,0,0,0,2016.606,1376.5Z" transform="translate(-2016.124 -1320.568)" fill="#d5e7fe"/>
  </g>
  <g id="Group_72" data-name="Group 72" transform="translate(50.232 249.868)">
    <path id="Path_94" data-name="Path 94" d="M2040.084,1630.909a.482.482,0,0,0,.07-.959l-10.142-1.489a.493.493,0,0,0-.545.408.481.481,0,0,0,.406.547l10.142,1.488A.51.51,0,0,0,2040.084,1630.909Z" transform="translate(-2029.461 -1628.457)" fill="#313b5b"/>
  </g>
  <g id="Group_145" data-name="Group 145" transform="translate(168.071 192.858)">
    <g id="Group_74" data-name="Group 74" transform="translate(0 78.122)">
      <rect id="Rectangle_7" data-name="Rectangle 7" width="105.365" height="6.467" transform="translate(0.482 0.482)" fill="#d5e7fe"/>
      <path id="Path_96" data-name="Path 96" d="M836.6,1754.132H941.965a.482.482,0,0,0,.482-.482v-6.467a.482.482,0,0,0-.482-.482H836.6a.482.482,0,0,0-.481.482v6.467A.482.482,0,0,0,836.6,1754.132Zm104.884-.963h-104.4v-5.5h104.4Z" transform="translate(-836.117 -1746.701)" fill="#313b5b"/>
    </g>
    <g id="Group_75" data-name="Group 75" transform="translate(105.366 78.122)">
      <rect id="Rectangle_8" data-name="Rectangle 8" width="58.967" height="6.467" transform="translate(0.481 0.482)" fill="#313b5b"/>
      <path id="Path_97" data-name="Path 97" d="M506.339,1754.132H565.3a.482.482,0,0,0,.482-.482v-6.467a.482.482,0,0,0-.482-.482H506.339a.482.482,0,0,0-.482.482v6.467A.482.482,0,0,0,506.339,1754.132Zm58.484-.963h-58v-5.5h58Z" transform="translate(-505.857 -1746.701)" fill="#313b5b"/>
    </g>
    <g id="Group_76" data-name="Group 76" transform="translate(162.715)">
      <path id="Path_98" data-name="Path 98" d="M435.781,1311.844l-16.168,78.123H418l16.169-78.123Z" transform="translate(-417.514 -1311.364)" fill="#313b5b"/>
      <path id="Path_99" data-name="Path 99" d="M415.776,1388.234h1.616a.484.484,0,0,0,.472-.384l16.169-78.122a.489.489,0,0,0-.1-.4.484.484,0,0,0-.375-.178h-1.616a.482.482,0,0,0-.472.384l-16.17,78.122a.49.49,0,0,0,.1.4A.484.484,0,0,0,415.776,1388.234Zm1.225-.964h-.634l15.97-77.159h.634Z" transform="translate(-415.295 -1309.148)" fill="#313b5b"/>
    </g>
    <g id="Group_77" data-name="Group 77" transform="translate(56.866)">
      <path id="Path_100" data-name="Path 100" d="M427.051,1389.966H532.9l16.168-78.123H443.7Z" transform="translate(-426.57 -1311.364)" fill="#d5e7fe"/>
      <path id="Path_101" data-name="Path 101" d="M424.831,1388.234H530.68a.484.484,0,0,0,.473-.384l16.169-78.122a.481.481,0,0,0-.472-.579H441.483a.48.48,0,0,0-.471.381l-16.653,78.123a.482.482,0,0,0,.471.583Zm105.458-.964H425.425l16.448-77.159H546.258Z" transform="translate(-424.349 -1309.148)" fill="#313b5b"/>
    </g>
    <path id="Path_102" data-name="Path 102" d="M474.766,1406.835H565.36l13.9-65.213H488.668Z" transform="translate(-408.415 -1335.823)" fill="#0093de"/>
    <g id="Group_143" data-name="Group 143" transform="translate(75.63 36.06)">
      <g id="Group_84" data-name="Group 84" transform="translate(32.941)">
        <g id="Group_79" data-name="Group 79" transform="translate(0 0.871)">
          <g id="Group_78" data-name="Group 78">
            <path id="Path_103" data-name="Path 103" d="M781.529,1535.753a.479.479,0,0,0,.454-.322l6.628-18.794a.481.481,0,1,0-.907-.32l-6.628,18.794a.482.482,0,0,0,.294.614A.463.463,0,0,0,781.529,1535.753Z" transform="translate(-781.047 -1515.993)" fill="#d5e7fe"/>
          </g>
        </g>
        <g id="Group_81" data-name="Group 81" transform="translate(2.243)">
          <g id="Group_80" data-name="Group 80">
            <path id="Path_104" data-name="Path 104" d="M765.517,1532.619a.479.479,0,0,0,.453-.322l7.243-20.538a.481.481,0,1,0-.907-.32l-7.244,20.538a.482.482,0,0,0,.294.614A.471.471,0,0,0,765.517,1532.619Z" transform="translate(-765.036 -1511.117)" fill="#d5e7fe"/>
          </g>
        </g>
        <g id="Group_83" data-name="Group 83" transform="translate(5.102 0.871)">
          <g id="Group_82" data-name="Group 82">
            <path id="Path_105" data-name="Path 105" d="M752.954,1535.753a.48.48,0,0,0,.454-.322l6.628-18.794a.481.481,0,1,0-.907-.32l-6.628,18.794a.482.482,0,0,0,.293.614A.464.464,0,0,0,752.954,1535.753Z" transform="translate(-752.473 -1515.993)" fill="#d5e7fe"/>
          </g>
        </g>
      </g>
      <g id="Group_137" data-name="Group 137" transform="translate(0 3.748)">
        <g id="Group_86" data-name="Group 86" transform="translate(0 4.961)">
          <g id="Group_85" data-name="Group 85">
            <path id="Path_106" data-name="Path 106" d="M996.982,1563.98a.48.48,0,0,0,.454-.322l1.1-3.121a.481.481,0,1,0-.907-.32l-1.1,3.12a.48.48,0,0,0,.294.614A.475.475,0,0,0,996.982,1563.98Z" transform="translate(-996.5 -1559.896)" fill="#d5e7fe"/>
          </g>
        </g>
        <g id="Group_88" data-name="Group 88" transform="translate(2.262 4.139)">
          <g id="Group_87" data-name="Group 87">
            <path id="Path_107" data-name="Path 107" d="M981.078,1561.016a.479.479,0,0,0,.454-.322l1.679-4.763a.481.481,0,1,0-.907-.32l-1.679,4.763a.481.481,0,0,0,.294.614A.464.464,0,0,0,981.078,1561.016Z" transform="translate(-980.597 -1555.288)" fill="#d5e7fe"/>
          </g>
        </g>
        <g id="Group_90" data-name="Group 90" transform="translate(4.812 4.139)">
          <g id="Group_89" data-name="Group 89">
            <path id="Path_108" data-name="Path 108" d="M966.8,1561.016a.479.479,0,0,0,.454-.322l1.679-4.763a.481.481,0,1,0-.907-.32l-1.679,4.763a.481.481,0,0,0,.294.614A.463.463,0,0,0,966.8,1561.016Z" transform="translate(-966.315 -1555.288)" fill="#d5e7fe"/>
          </g>
        </g>
        <g id="Group_92" data-name="Group 92" transform="translate(6.575 1.909)">
          <g id="Group_91" data-name="Group 91">
            <path id="Path_109" data-name="Path 109" d="M948.1,1552.986a.48.48,0,0,0,.454-.322l3.254-9.225a.481.481,0,1,0-.907-.32l-3.254,9.225a.482.482,0,0,0,.294.614A.474.474,0,0,0,948.1,1552.986Z" transform="translate(-947.616 -1542.797)" fill="#d5e7fe"/>
          </g>
        </g>
        <g id="Group_94" data-name="Group 94" transform="translate(8.715 0.744)">
          <g id="Group_93" data-name="Group 93">
            <path id="Path_110" data-name="Path 110" d="M931.517,1548.79a.479.479,0,0,0,.453-.322l4.074-11.553a.481.481,0,1,0-.907-.32l-4.074,11.553a.482.482,0,0,0,.294.614A.477.477,0,0,0,931.517,1548.79Z" transform="translate(-931.036 -1536.272)" fill="#d5e7fe"/>
          </g>
        </g>
        <g id="Group_96" data-name="Group 96" transform="translate(11.675 1.909)">
          <g id="Group_95" data-name="Group 95">
            <path id="Path_111" data-name="Path 111" d="M919.534,1552.986a.48.48,0,0,0,.454-.322l3.253-9.225a.481.481,0,1,0-.907-.32l-3.254,9.225a.482.482,0,0,0,.293.614A.476.476,0,0,0,919.534,1552.986Z" transform="translate(-919.053 -1542.797)" fill="#d5e7fe"/>
          </g>
        </g>
        <g id="Group_98" data-name="Group 98" transform="translate(15.204 4.679)">
          <g id="Group_97" data-name="Group 97" transform="translate(0)">
            <path id="Path_112" data-name="Path 112" d="M910.722,1562.963a.479.479,0,0,0,.453-.322l1.3-3.683a.481.481,0,1,0-.907-.32l-1.3,3.683a.483.483,0,0,0,.294.614A.489.489,0,0,0,910.722,1562.963Z" transform="translate(-910.241 -1558.316)" fill="#d5e7fe"/>
          </g>
        </g>
        <g id="Group_100" data-name="Group 100" transform="translate(17.754 4.679)">
          <g id="Group_99" data-name="Group 99" transform="translate(0)">
            <path id="Path_113" data-name="Path 113" d="M896.439,1562.963a.479.479,0,0,0,.453-.322l1.3-3.683a.481.481,0,1,0-.907-.32l-1.3,3.683a.482.482,0,0,0,.294.614A.489.489,0,0,0,896.439,1562.963Z" transform="translate(-895.958 -1558.316)" fill="#d5e7fe"/>
          </g>
        </g>
        <g id="Group_102" data-name="Group 102" transform="translate(20.304 4.679)">
          <g id="Group_101" data-name="Group 101" transform="translate(0)">
            <path id="Path_114" data-name="Path 114" d="M882.157,1562.963a.479.479,0,0,0,.453-.322l1.3-3.683a.481.481,0,1,0-.907-.32l-1.3,3.683a.482.482,0,0,0,.293.614A.492.492,0,0,0,882.157,1562.963Z" transform="translate(-881.676 -1558.316)" fill="#d5e7fe"/>
          </g>
        </g>
        <g id="Group_104" data-name="Group 104" transform="translate(21.204)">
          <g id="Group_103" data-name="Group 103" transform="translate(0)">
            <path id="Path_115" data-name="Path 115" d="M858.631,1546.113a.479.479,0,0,0,.454-.322l4.6-13.042a.481.481,0,1,0-.907-.32l-4.6,13.042a.481.481,0,0,0,.453.642Z" transform="translate(-858.15 -1532.106)" fill="#d5e7fe"/>
          </g>
        </g>
        <g id="Group_106" data-name="Group 106" transform="translate(23.755)">
          <g id="Group_105" data-name="Group 105" transform="translate(0)">
            <path id="Path_116" data-name="Path 116" d="M844.339,1546.113a.48.48,0,0,0,.454-.322l4.6-13.042a.481.481,0,1,0-.907-.32l-4.6,13.042a.481.481,0,0,0,.454.642Z" transform="translate(-843.858 -1532.106)" fill="#d5e7fe"/>
          </g>
        </g>
        <g id="Group_108" data-name="Group 108" transform="translate(27.382 3.056)">
          <g id="Group_107" data-name="Group 107" transform="translate(0)">
            <path id="Path_117" data-name="Path 117" d="M836.1,1557.119a.479.479,0,0,0,.454-.322l2.444-6.931a.481.481,0,1,0-.907-.32l-2.445,6.931a.482.482,0,0,0,.294.615A.473.473,0,0,0,836.1,1557.119Z" transform="translate(-835.615 -1549.224)" fill="#d5e7fe"/>
          </g>
        </g>
        <g id="Group_110" data-name="Group 110" transform="translate(29.934 3.056)">
          <g id="Group_109" data-name="Group 109" transform="translate(0)">
            <path id="Path_118" data-name="Path 118" d="M821.813,1557.119a.479.479,0,0,0,.454-.322l2.443-6.931a.481.481,0,1,0-.907-.32l-2.442,6.931a.482.482,0,0,0,.293.615A.476.476,0,0,0,821.813,1557.119Z" transform="translate(-821.332 -1549.224)" fill="#d5e7fe"/>
          </g>
        </g>
        <g id="Group_112" data-name="Group 112" transform="translate(45.235 3.056)">
          <g id="Group_111" data-name="Group 111">
            <path id="Path_119" data-name="Path 119" d="M736.1,1557.119a.479.479,0,0,0,.454-.322l2.445-6.931a.481.481,0,1,0-.907-.32l-2.445,6.931a.482.482,0,0,0,.293.615A.475.475,0,0,0,736.1,1557.119Z" transform="translate(-735.619 -1549.224)" fill="#d5e7fe"/>
          </g>
        </g>
        <g id="Group_114" data-name="Group 114" transform="translate(47.785 3.056)">
          <g id="Group_113" data-name="Group 113" transform="translate(0)">
            <path id="Path_120" data-name="Path 120" d="M721.818,1557.119a.479.479,0,0,0,.453-.322l2.445-6.931a.481.481,0,1,0-.907-.32l-2.445,6.931a.483.483,0,0,0,.294.615A.475.475,0,0,0,721.818,1557.119Z" transform="translate(-721.337 -1549.224)" fill="#d5e7fe"/>
          </g>
        </g>
        <g id="Group_116" data-name="Group 116" transform="translate(49.259)">
          <g id="Group_115" data-name="Group 115" transform="translate(0)">
            <path id="Path_121" data-name="Path 121" d="M701.5,1546.113a.479.479,0,0,0,.454-.322l4.6-13.042a.481.481,0,1,0-.907-.32l-4.6,13.042a.481.481,0,0,0,.453.642Z" transform="translate(-701.015 -1532.106)" fill="#d5e7fe"/>
          </g>
        </g>
        <g id="Group_118" data-name="Group 118" transform="translate(51.809)">
          <g id="Group_117" data-name="Group 117" transform="translate(0)">
            <path id="Path_122" data-name="Path 122" d="M687.213,1546.113a.48.48,0,0,0,.453-.322l4.6-13.042a.481.481,0,1,0-.907-.32l-4.6,13.042a.481.481,0,0,0,.454.642Z" transform="translate(-686.732 -1532.106)" fill="#d5e7fe"/>
          </g>
        </g>
        <g id="Group_120" data-name="Group 120" transform="translate(55.437 3.056)">
          <g id="Group_119" data-name="Group 119" transform="translate(0)">
            <path id="Path_123" data-name="Path 123" d="M678.972,1557.119a.479.479,0,0,0,.453-.322l2.443-6.931a.481.481,0,1,0-.907-.32l-2.443,6.931a.482.482,0,0,0,.294.615A.475.475,0,0,0,678.972,1557.119Z" transform="translate(-678.491 -1549.224)" fill="#d5e7fe"/>
          </g>
        </g>
        <g id="Group_122" data-name="Group 122" transform="translate(57.987 3.056)">
          <g id="Group_121" data-name="Group 121" transform="translate(0)">
            <path id="Path_124" data-name="Path 124" d="M664.679,1557.119a.479.479,0,0,0,.454-.322l2.445-6.931a.481.481,0,1,0-.907-.32l-2.444,6.931a.482.482,0,0,0,.293.615A.474.474,0,0,0,664.679,1557.119Z" transform="translate(-664.198 -1549.224)" fill="#d5e7fe"/>
          </g>
        </g>
        <g id="Group_124" data-name="Group 124" transform="translate(61.109 4.678)">
          <g id="Group_123" data-name="Group 123" transform="translate(0)">
            <path id="Path_125" data-name="Path 125" d="M653.6,1562.957a.481.481,0,0,0,.454-.322l1.3-3.683a.481.481,0,1,0-.907-.32l-1.3,3.683a.481.481,0,0,0,.454.642Z" transform="translate(-653.119 -1558.308)" fill="#d5e7fe"/>
          </g>
        </g>
        <g id="Group_126" data-name="Group 126" transform="translate(63.087 3.056)">
          <g id="Group_125" data-name="Group 125" transform="translate(0)">
            <path id="Path_126" data-name="Path 126" d="M636.115,1557.119a.479.479,0,0,0,.454-.322l2.444-6.931a.481.481,0,1,0-.907-.32l-2.445,6.931a.483.483,0,0,0,.294.615A.475.475,0,0,0,636.115,1557.119Z" transform="translate(-635.634 -1549.224)" fill="#d5e7fe"/>
          </g>
        </g>
        <g id="Group_128" data-name="Group 128" transform="translate(65.003 1.257)">
          <g id="Group_127" data-name="Group 127" transform="translate(0)">
            <path id="Path_127" data-name="Path 127" d="M618.28,1550.638a.478.478,0,0,0,.453-.322l3.714-10.528a.483.483,0,0,0-.294-.614.477.477,0,0,0-.613.294L617.827,1550a.481.481,0,0,0,.454.642Z" transform="translate(-617.799 -1539.146)" fill="#d5e7fe"/>
          </g>
        </g>
        <g id="Group_130" data-name="Group 130" transform="translate(67.555 1.257)">
          <g id="Group_129" data-name="Group 129" transform="translate(0)">
            <path id="Path_128" data-name="Path 128" d="M603.988,1550.638a.478.478,0,0,0,.454-.322l3.713-10.528a.481.481,0,1,0-.907-.32L603.534,1550a.481.481,0,0,0,.454.642Z" transform="translate(-603.507 -1539.146)" fill="#d5e7fe"/>
          </g>
        </g>
        <g id="Group_132" data-name="Group 132" transform="translate(70.888 3.476)">
          <g id="Group_131" data-name="Group 131" transform="translate(0)">
            <path id="Path_129" data-name="Path 129" d="M594.09,1558.632a.48.48,0,0,0,.454-.322l2.147-6.091a.481.481,0,1,0-.907-.32l-2.147,6.091a.481.481,0,0,0,.454.642Z" transform="translate(-593.609 -1551.577)" fill="#d5e7fe"/>
          </g>
        </g>
        <g id="Group_134" data-name="Group 134" transform="translate(73.438 3.476)">
          <g id="Group_133" data-name="Group 133" transform="translate(0)">
            <path id="Path_130" data-name="Path 130" d="M579.809,1558.632a.481.481,0,0,0,.454-.322l2.147-6.091a.481.481,0,1,0-.907-.32l-2.147,6.091a.481.481,0,0,0,.454.642Z" transform="translate(-579.328 -1551.577)" fill="#d5e7fe"/>
          </g>
        </g>
        <g id="Group_136" data-name="Group 136" transform="translate(76.46 4.817)">
          <g id="Group_135" data-name="Group 135" transform="translate(0)">
            <path id="Path_131" data-name="Path 131" d="M568.17,1563.46a.478.478,0,0,0,.453-.322l1.2-3.408a.481.481,0,1,0-.908-.32l-1.2,3.408a.481.481,0,0,0,.294.615A.47.47,0,0,0,568.17,1563.46Z" transform="translate(-567.689 -1559.088)" fill="#d5e7fe"/>
          </g>
        </g>
      </g>
      <g id="Group_142" data-name="Group 142" transform="translate(31.405 3.748)">
        <g id="Group_139" data-name="Group 139" transform="translate(0)">
          <g id="Group_138" data-name="Group 138">
            <path id="Path_132" data-name="Path 132" d="M801.492,1546.113a.48.48,0,0,0,.454-.322l4.6-13.042a.481.481,0,1,0-.907-.32l-4.6,13.042a.481.481,0,0,0,.453.642Z" transform="translate(-801.011 -1532.106)" fill="#d5e7fe"/>
          </g>
        </g>
        <g id="Group_141" data-name="Group 141" transform="translate(10.202)">
          <g id="Group_140" data-name="Group 140" transform="translate(0)">
            <path id="Path_133" data-name="Path 133" d="M744.353,1546.113a.48.48,0,0,0,.454-.322l4.6-13.042a.481.481,0,1,0-.907-.32l-4.6,13.042a.481.481,0,0,0,.453.642Z" transform="translate(-743.872 -1532.106)" fill="#d5e7fe"/>
          </g>
        </g>
      </g>
    </g>
    <g id="Group_144" data-name="Group 144" transform="translate(89.17 15.962)">
      <path id="Path_134" data-name="Path 134" d="M587.425,1405.568a6.694,6.694,0,0,1,.077,1.862,6.115,6.115,0,0,1-.41,1.677,5.434,5.434,0,0,1-.847,1.426,5.533,5.533,0,0,1-1.226,1.1,5.712,5.712,0,0,1-1.552.71,6.456,6.456,0,0,1-1.822.251,7.369,7.369,0,0,1-1.906-.251,8.476,8.476,0,0,1-1.8-.71,9.247,9.247,0,0,1-2.976-2.53,8.721,8.721,0,0,1-1.006-1.677,7.674,7.674,0,0,1-.579-1.862,6.743,6.743,0,0,1-.078-1.866,5.926,5.926,0,0,1,.415-1.677,5.6,5.6,0,0,1,.853-1.421,5.358,5.358,0,0,1,1.232-1.1,5.889,5.889,0,0,1,1.552-.706,6.364,6.364,0,0,1,1.817-.251,7.371,7.371,0,0,1,1.911.251,8.449,8.449,0,0,1,1.8.706,8.979,8.979,0,0,1,1.615,1.1,9.088,9.088,0,0,1,1.35,1.421,8.732,8.732,0,0,1,1,1.677A7.718,7.718,0,0,1,587.425,1405.568Zm-2.7,0a4.831,4.831,0,0,0-.637-1.682,5.609,5.609,0,0,0-1.166-1.373,5.518,5.518,0,0,0-1.537-.924,4.644,4.644,0,0,0-1.742-.342,3.781,3.781,0,0,0-1.626.342,3.385,3.385,0,0,0-1.9,2.3,3.966,3.966,0,0,0-.044,1.682,4.765,4.765,0,0,0,.636,1.673,5.692,5.692,0,0,0,1.17,1.368,5.564,5.564,0,0,0,1.537.929,4.644,4.644,0,0,0,1.746.341,3.8,3.8,0,0,0,1.622-.341,3.373,3.373,0,0,0,1.21-.929,3.551,3.551,0,0,0,.682-1.368A3.9,3.9,0,0,0,584.724,1405.568Z" transform="translate(-573.265 -1398.548)" fill="#d5e7fe"/>
      <path id="Path_135" data-name="Path 135" d="M669.046,1413.088h-2.909l-6.816-8.943,1.577,8.943H658.18l-2.4-13.585h2.908l6.818,8.952-1.578-8.952h2.719Z" transform="translate(-641.051 -1399.332)" fill="#d5e7fe"/>
      <path id="Path_136" data-name="Path 136" d="M777.583,1413.088h-2.719l-.479-2.719h-5.438l.48,2.719h-2.71l-1.436-8.147a4.993,4.993,0,0,1,.053-2.117,4.409,4.409,0,0,1,.856-1.729,4.246,4.246,0,0,1,1.519-1.165,4.774,4.774,0,0,1,2.042-.426,5.846,5.846,0,0,1,2.193.426,6.962,6.962,0,0,1,1.934,1.165,7.064,7.064,0,0,1,1.47,1.729,6.086,6.086,0,0,1,.8,2.117Zm-3.676-5.428-.479-2.719a3.048,3.048,0,0,0-.4-1.057,3.526,3.526,0,0,0-.736-.867,3.464,3.464,0,0,0-.969-.582,2.928,2.928,0,0,0-1.094-.213,2.39,2.39,0,0,0-1.019.213,2.14,2.14,0,0,0-.764.582,2.189,2.189,0,0,0-.43.867,2.5,2.5,0,0,0-.027,1.057l.479,2.719Z" transform="translate(-730.925 -1399.332)" fill="#d5e7fe"/>
      <path id="Path_137" data-name="Path 137" d="M839.5,1413.088h-2.719l-2.4-13.585H837.1Z" transform="translate(-787.765 -1399.332)" fill="#d5e7fe"/>
      <path id="Path_138" data-name="Path 138" d="M868.843,1413.088h-2.719l-2.4-13.585h5.438a5.693,5.693,0,0,1,1.474.194,6.5,6.5,0,0,1,1.39.55,7.145,7.145,0,0,1,2.3,1.956,6.805,6.805,0,0,1,.778,1.3,5.908,5.908,0,0,1,.448,1.44,5.2,5.2,0,0,1,.065,1.364,4.8,4.8,0,0,1-.28,1.26,4.185,4.185,0,0,1-1.514,1.971l2.133,3.552h-2.889l-1.667-2.738-3.038.019Zm-1.916-10.866.959,5.438h2.719a2.362,2.362,0,0,0,1.014-.213,2.153,2.153,0,0,0,.759-.583,2.19,2.19,0,0,0,.43-.867,2.5,2.5,0,0,0,.027-1.056,3.044,3.044,0,0,0-.4-1.057,3.524,3.524,0,0,0-.735-.867,3.482,3.482,0,0,0-.965-.582,2.893,2.893,0,0,0-1.089-.213Z" transform="translate(-811.869 -1399.332)" fill="#d5e7fe"/>
    </g>
  </g>
  <g id="Group_146" data-name="Group 146" transform="translate(188.781 22.607)">
    <path id="Path_139" data-name="Path 139" d="M1258.35,366.83a5.617,5.617,0,1,0-5.618-5.617A5.624,5.624,0,0,0,1258.35,366.83Zm0-10.27a4.654,4.654,0,1,1-4.654,4.653A4.658,4.658,0,0,1,1258.35,356.56Z" transform="translate(-1252.733 -355.596)" fill="#313b5b"/>
  </g>
  <g id="Group_147" data-name="Group 147" transform="translate(362.93 93.977)">
    <path id="Path_140" data-name="Path 140" d="M290.4,765.105a4.889,4.889,0,1,0-4.889-4.888A4.893,4.893,0,0,0,290.4,765.105Zm0-8.814a3.925,3.925,0,1,1-3.926,3.925A3.929,3.929,0,0,1,290.4,756.291Z" transform="translate(-285.511 -755.328)" fill="#313b5b"/>
  </g>
  <g id="Group_148" data-name="Group 148" transform="translate(0 103.204)">
    <path id="Path_141" data-name="Path 141" d="M2307.967,819.761a6.375,6.375,0,1,0-6.376-6.375A6.381,6.381,0,0,0,2307.967,819.761Zm0-11.787a5.412,5.412,0,1,1-5.413,5.412A5.417,5.417,0,0,1,2307.967,807.975Z" transform="translate(-2301.591 -807.011)" fill="#313b5b"/>
  </g>
  <g id="Group_149" data-name="Group 149" transform="translate(220.753 13.614)">
    <path id="Path_142" data-name="Path 142" d="M1087.941,314.76a4.768,4.768,0,1,0-4.768-4.768A4.774,4.774,0,0,0,1087.941,314.76Zm0-8.572a3.8,3.8,0,1,1-3.8,3.8A3.809,3.809,0,0,1,1087.941,306.188Z" transform="translate(-1083.172 -305.224)" fill="#0093de"/>
  </g>
  <g id="Group_150" data-name="Group 150" transform="translate(339.678 69.697)">
    <path id="Path_143" data-name="Path 143" d="M428.469,627.576a4.119,4.119,0,1,0-4.12-4.12A4.125,4.125,0,0,0,428.469,627.576Zm0-7.276a3.156,3.156,0,1,1-3.156,3.156A3.161,3.161,0,0,1,428.469,620.3Z" transform="translate(-424.349 -619.337)" fill="#0093de"/>
  </g>
  <g id="Group_151" data-name="Group 151" transform="translate(194.446 130.419)">
    <path id="Path_144" data-name="Path 144" d="M1241.044,967.844a4.2,4.2,0,1,0-4.2-4.205A4.209,4.209,0,0,0,1241.044,967.844Zm0-7.446a3.241,3.241,0,1,1-3.241,3.241A3.243,3.243,0,0,1,1241.044,960.4Z" transform="translate(-1236.839 -959.435)" fill="#0093de"/>
  </g>
  <g id="Group_152" data-name="Group 152" transform="translate(20.535 17.881)">
    <path id="Path_145" data-name="Path 145" d="M2228.967,334.815a2.845,2.845,0,1,0-2.847-2.845A2.847,2.847,0,0,0,2228.967,334.815Zm0-4.727a1.881,1.881,0,1,1-1.883,1.881A1.883,1.883,0,0,1,2228.967,330.089Z" transform="translate(-2226.12 -329.125)" fill="#0093de"/>
  </g>
</svg>
