<svg fill="none" height="512" viewBox="0 0 24 24" width="512" xmlns="http://www.w3.org/2000/svg"><g fill="rgb(0,0,0)"><path d="m11.9702 22.75c-5.91999 0-10.74999-4.82-10.74999-10.75s4.83-10.75 10.74999-10.75c5.92 0 10.75 4.82 10.75 10.75s-4.82 10.75-10.75 10.75zm0-20c-5.09999 0-9.24999 4.15-9.24999 9.25s4.15 9.25 9.24999 9.25c5.1 0 9.25-4.15 9.25-9.25s-4.15-9.25-9.25-9.25z"/><path d="m10.5602 16.99c-.44 0-.85997-.11-1.22997-.32-.86-.5-1.34-1.48-1.34-2.76v-3.35c0-1.28001.47-2.26001 1.33-2.76001.85997-.5 1.94997-.42 3.05997.22l2.9 1.67c1.11.64001 1.72 1.54001 1.72 2.54001 0 .99-.61 1.9-1.72 2.54l-2.9 1.67c-.62.37-1.25.55-1.82.55zm0-8.02001c-.18 0-.35.04-.48.12-.37997.22-.58997.75-.58997 1.47001v3.35c0 .71.21 1.25.58997 1.46.37.22.94.13 1.56-.22l2.9-1.67c.62-.36.97-.81.97-1.24s-.36-.88-.97-1.24l-2.9-1.67001c-.4-.24-.77-.36-1.08-.36z"/></g></svg>