<svg xmlns="http://www.w3.org/2000/svg" width="1188.79" height="314.547" viewBox="0 0 1188.79 314.547">
  <g id="shapes" transform="translate(-88.691 -28.688)">
    <g id="shapes-2" data-name="shapes" transform="translate(90 30)">
      <rect id="Rectangle_21" data-name="Rectangle 21" width="16.9" height="16.926" transform="translate(202.251 263.288) rotate(-21)" fill="none" stroke="#bee2f8" stroke-linecap="round" stroke-linejoin="round" stroke-width="5" opacity="0.75"/>
      <path id="Path_6" data-name="Path 6" d="M0,17c2.123-2.125,5.474,1.22,7.594-.9S6.365,10.626,8.487,8.5s5.472,1.22,7.594-.9-1.229-5.471.9-7.6" transform="matrix(0.999, -0.035, 0.035, 0.999, 1166.264, 259.85)" fill="none" stroke="#bee2f8" stroke-linecap="round" stroke-linejoin="round" stroke-width="5"/>
      <path id="Path_119" data-name="Path 119" d="M8.487,17a8.5,8.5,0,0,1,0-17" transform="translate(1067.639 9.963) rotate(42)" fill="none" stroke="#bee2f8" stroke-linecap="round" stroke-linejoin="round" stroke-width="5" opacity="0.75"/>
      <path id="Path_118" data-name="Path 118" d="M5.756,17,0,0,17.867,1.423Z" transform="translate(817.141 291.09) rotate(8)" fill="none" stroke="#bee2f8" stroke-linecap="round" stroke-linejoin="round" stroke-width="5" opacity="0.75"/>
      <g id="_" data-name="+" transform="translate(0 3.239) rotate(-11)" opacity="0.75">
        <line id="Line_11" data-name="Line 11" y2="17" transform="translate(8.487 0)" fill="none" stroke="#bee2f8" stroke-linecap="round" stroke-linejoin="round" stroke-width="5"/>
        <line id="Line_12" data-name="Line 12" x1="16.974" transform="translate(0 8.5)" fill="none" stroke="#bee2f8" stroke-linecap="round" stroke-linejoin="round" stroke-width="5"/>
      </g>
    </g>
    <path id="Path_165" data-name="Path 165" d="M480.577,299.016q3.2-2.533,6.614-4.737L459.2,323.836q2.084-3.6,4.483-6.98Zm37.046-16.645q1.244-.214,2.495-.387l-72.567,76.611q.164-1.317.367-2.633Zm21.956-.713q.958.1,1.914.223l-94.04,99.28c-.079-.674-.149-1.348-.214-2.022Zm17.592,3.889q.8.273,1.6.566L451.458,399.4c-.181-.559-.36-1.122-.533-1.684Zm14.842,6.8c.457.266.91.538,1.36.812L458.132,414.817c-.26-.475-.518-.952-.769-1.436Zm12.676,9.081c.388.339.776.677,1.159,1.024L466.935,427.989c-.328-.406-.65-.814-.97-1.224Zm10.734,11.132q.49.61.969,1.225L477.67,439.122c-.392-.34-.779-.679-1.161-1.025Zm8.8,13.172c.26.475.516.956.767,1.436L490.345,448.2q-.684-.4-1.359-.811Zm6.671,15.421q.275.836.533,1.682L505.187,455q-.8-.275-1.594-.566Zm4.006,18.235q.12,1.011.213,2.02L522.78,458.891c-.638-.07-1.277-.144-1.915-.227Zm-.1,22.564c-.109.882-.234,1.761-.367,2.635l-69.707,73.592q-1.243.214-2.5.387Zm-11.649,34.763q-2.082,3.6-4.478,6.974l-16.906,17.848q-3.2,2.53-6.611,4.733Zm0,0" transform="translate(462.093 -197.658)" fill="#bee2f8" fill-rule="evenodd"/>
    <path id="Path_166" data-name="Path 166" d="M121.3,177.986q1.827-1.446,3.775-2.7l-15.98,16.871q1.191-2.054,2.559-3.985Zm21.146-9.5c.473-.082.949-.157,1.424-.221l-41.422,43.73q.094-.751.21-1.5Zm12.532-.408q.547.057,1.094.128l-53.679,56.669c-.045-.383-.084-.768-.123-1.153Zm10.042,2.22q.457.156.911.323l-61.253,64.664c-.1-.319-.206-.64-.3-.961Zm8.473,3.88c.26.151.519.307.775.463l-65.781,69.446c-.148-.271-.3-.544-.439-.82Zm7.236,5.183c.221.194.443.388.66.585L113.507,251.6c-.187-.232-.37-.465-.554-.7Zm6.127,6.355c.187.232.371.465.553.7l-67.768,71.546q-.334-.29-.663-.585Zm5.024,7.519c.15.271.3.546.439.82l-65.443,69.091q-.391-.229-.776-.463Zm3.809,8.8q.157.478.3.96l-60.646,64.028q-.457-.158-.909-.323Zm2.287,10.41c.045.385.084.768.12,1.153l-52.707,55.645c-.363-.039-.728-.081-1.092-.128Zm-.055,12.88c-.063.5-.134,1.006-.21,1.5l-39.79,42.007c-.472.081-.948.155-1.424.221Zm-6.649,19.843q-1.19,2.054-2.557,3.981l-9.651,10.187q-1.825,1.444-3.773,2.7Zm0,0" transform="translate(191.769 -94.077)" fill="#bee2f8" fill-rule="evenodd"/>
  </g>
</svg>
