<svg xmlns="http://www.w3.org/2000/svg" width="1255.265" height="218.461" viewBox="0 0 1255.265 218.461">
  <g id="shaps" transform="translate(-365.417 -307.463)">
    <path id="Path_25" data-name="Path 25" d="M487.227,301.38q3.838-2.878,7.933-5.383l-33.578,33.582q2.5-4.089,5.377-7.931Zm44.436-18.912q1.493-.243,2.992-.44L447.613,369.07q.2-1.5.44-2.991Zm26.336-.81q1.148.115,2.3.254l-112.8,112.8c-.095-.766-.178-1.531-.257-2.3Zm21.1,4.418q.96.31,1.915.643L452.3,415.429c-.217-.635-.432-1.275-.639-1.913Zm17.8,7.721c.548.3,1.091.612,1.631.922L460.3,432.949c-.312-.54-.621-1.082-.922-1.631Zm15.2,10.318c.466.385.93.77,1.39,1.164L470.863,447.914c-.393-.462-.779-.925-1.164-1.391Zm12.876,12.647q.587.693,1.163,1.392L483.74,460.563c-.47-.386-.934-.771-1.392-1.164Zm10.56,14.966c.312.54.618,1.086.92,1.631L498.944,470.881q-.82-.454-1.63-.921Zm8,17.521q.33.95.639,1.911L516.745,478.6q-.96-.312-1.912-.643Zm4.8,20.718q.144,1.148.255,2.3L537.849,483.024c-.766-.08-1.531-.163-2.3-.258Zm-.115,25.636c-.131,1-.281,2-.44,2.994l-83.611,83.612q-1.491.243-2.994.44Zm-13.972,39.5q-2.5,4.088-5.372,7.924L608.612,463.3q-3.836,2.874-7.929,5.377Zm0,0" transform="translate(972.078 42.9)" fill="#0093de" fill-rule="evenodd"/>
    <path id="Path_26" data-name="Path 26" d="M122.356,177.986q1.928-1.446,3.985-2.7l-16.87,16.871q1.258-2.054,2.7-3.985Zm22.324-9.5c.5-.082,1-.157,1.5-.221l-43.73,43.73q.1-.751.221-1.5Zm13.231-.408q.577.057,1.155.128l-56.67,56.669c-.047-.383-.089-.768-.13-1.153Zm10.6,2.22q.482.156.961.323l-64.666,64.664c-.109-.319-.217-.64-.321-.961Zm8.945,3.88c.274.151.548.307.818.463l-69.446,69.446c-.157-.271-.312-.544-.463-.82Zm7.639,5.183c.234.194.467.388.7.585L114.133,251.6c-.2-.232-.39-.465-.585-.7Zm6.468,6.355c.2.232.392.465.583.7L120.6,257.959q-.352-.29-.7-.585Zm5.3,7.519c.158.271.312.546.463.82l-69.089,69.091q-.413-.229-.82-.463Zm4.021,8.8q.166.478.321.96l-64.026,64.028q-.482-.158-.96-.323Zm2.414,10.41c.047.385.089.768.127,1.153l-55.644,55.645c-.383-.039-.768-.081-1.153-.128Zm-.058,12.88c-.066.5-.142,1.006-.221,1.5l-42.007,42.007c-.5.081-1,.155-1.5.221Zm-7.019,19.843q-1.256,2.054-2.7,3.981l-10.188,10.187q-1.926,1.444-3.984,2.7Zm0,0" transform="translate(263.152 139.386)" fill="#0093de" fill-rule="evenodd"/>
    <g id="Group_27" data-name="Group 27" transform="translate(1290.189 315.06)">
      <path id="Path_31" data-name="Path 31" d="M389.526,100.759a.47.47,0,0,0,.275.415l18.033,9.022a.554.554,0,0,0,.825-.413V91.741a.554.554,0,0,0-.825-.413l-18.033,9.02a.471.471,0,0,0-.275.411Zm18.034-8.193v16.391l-16.384-8.2Zm-16.384,8.2" transform="translate(-354.208 -91.263)" fill="#0093de" fill-rule="evenodd"/>
      <path id="Path_32" data-name="Path 32" d="M376.449,100.759a.466.466,0,0,0,.274.415l18.034,9.022a.553.553,0,0,0,.824-.413V91.741a.553.553,0,0,0-.824-.413l-18.034,9.02a.468.468,0,0,0-.274.411Zm18.033-8.193v16.391l-16.384-8.2Zm-16.384,8.2" transform="translate(-358.789 -91.263)" fill="#0093de" fill-rule="evenodd"/>
      <path id="Path_33" data-name="Path 33" d="M363.371,100.759a.466.466,0,0,0,.274.415l18.034,9.022a.553.553,0,0,0,.824-.413V91.741a.553.553,0,0,0-.824-.413l-18.034,9.02a.47.47,0,0,0-.274.411ZM381.4,92.566v16.391l-16.384-8.2Zm-16.384,8.2" transform="translate(-363.371 -91.263)" fill="#0093de" fill-rule="evenodd"/>
    </g>
  </g>
</svg>
