<svg xmlns="http://www.w3.org/2000/svg" width="446.742" height="527.962" viewBox="0 0 446.742 527.962">
  <g id="shapes" transform="translate(0.928 2.825)">
    <rect id="Rectangle_21" data-name="Rectangle 21" width="14.766" height="14.789" transform="translate(33.769 277.616) rotate(-21)" fill="none" stroke="#e1edff" stroke-linecap="round" stroke-linejoin="round" stroke-width="4" opacity="0.75"/>
    <path id="Path_6" data-name="Path 6" d="M0,14.853C1.855,13,4.783,15.919,6.635,14.063s-1.074-4.779.78-6.635S12.2,8.493,14.05,6.637,12.976,1.857,14.833,0" transform="matrix(0.999, -0.035, 0.035, 0.999, 427.547, 445.691)" fill="none" stroke="#e1edff" stroke-linecap="round" stroke-linejoin="round" stroke-width="4"/>
    <path id="Path_119" data-name="Path 119" d="M7.415,14.853A7.427,7.427,0,0,1,7.415,0" transform="translate(359.432 0) rotate(42)" fill="none" stroke="#e1edff" stroke-linecap="round" stroke-linejoin="round" stroke-width="4" opacity="0.75"/>
    <path id="Path_118" data-name="Path 118" d="M5.029,14.853,0,0,15.611,1.243Z" transform="translate(195.463 505.997) rotate(8)" fill="none" stroke="#e1edff" stroke-linecap="round" stroke-linejoin="round" stroke-width="4" opacity="0.75"/>
    <g id="_" data-name="+" transform="translate(0 48.336) rotate(-11)" opacity="0.75">
      <line id="Line_11" data-name="Line 11" y2="14.853" transform="translate(7.415)" fill="none" stroke="#e1edff" stroke-linecap="round" stroke-linejoin="round" stroke-width="4"/>
      <line id="Line_12" data-name="Line 12" x1="14.83" transform="translate(0 7.427)" fill="none" stroke="#e1edff" stroke-linecap="round" stroke-linejoin="round" stroke-width="4"/>
    </g>
  </g>
</svg>
