<svg xmlns="http://www.w3.org/2000/svg" width="335.265" height="308.621" viewBox="0 0 335.265 308.621">
  <g id="OBJECTS" transform="translate(-122.204 -171.836)">
    <g id="Group_32" data-name="Group 32" transform="translate(116.604 171.836)">
      <g id="Group_1" data-name="Group 1" transform="translate(5.6 42)">
        <path id="Path_1" data-name="Path 1" d="M415.806,374.327c-6.6-8.988-14.48-17.657-25.258-21.9-8.231-3.238-17.585-3.643-26.681-2.791-32.662,3.066-62.211,21.28-94.1,29.672-25.984,6.839-53.641,7.179-78.367,17.739-28.691,12.257-50.757,38.462-56.634,67.256a82.18,82.18,0,0,0,17.262,68.415H440.307C457.335,478.768,448.568,418.939,415.806,374.327Z" transform="translate(-128.906 -274.798)" fill="#eef5ff"/>
        <path id="Path_2" data-name="Path 2" d="M355.76,282.664c12.462-12.79,10.267-33.724-4.117-44.308-15.875-11.68-36.648-16.879-56.014-12.914-13.11,2.683-26.656,10.822-29.358,23.926-2.066,10.008,2.961,20.507,10.652,27.235s17.655,10.253,27.59,12.64c14.915,3.586,31.268,4.8,45.044-1.957A22.669,22.669,0,0,0,355.76,282.664Z" transform="translate(-182.626 -224.127)" fill="#eef5ff"/>
        <path id="Path_3" data-name="Path 3" d="M157.722,356.567c-9.949-5.945-12.061-19.442-4.8-28.479,8.011-9.97,20.175-16.694,32.984-17.433,8.671-.5,18.525,2.347,22.4,10.118,2.962,5.932,1.559,13.358-2.143,18.857s-9.367,9.372-15.2,12.527c-8.758,4.732-18.817,8.218-28.582,6.278A14.691,14.691,0,0,1,157.722,356.567Z" transform="translate(-135.166 -259.143)" fill="#eef5ff"/>
        <path id="Path_4" data-name="Path 4" d="M132.693,518.492l-.141-.88,1.72-.274c-14.632-31.057-9.619-66.731,13.465-95.532a114.185,114.185,0,0,1,49.9-35.677,116.447,116.447,0,0,1,66.522-3.954l-.2.869a115.567,115.567,0,0,0-66.014,3.924,113.3,113.3,0,0,0-49.509,35.4c-23,28.7-27.9,64.26-13.1,95.125l.259.544Z" transform="translate(-126.016 -286.882)" fill="#eef5ff"/>
      </g>
      <g id="Group_5" data-name="Group 5" transform="translate(5.6 228.003)">
        <path id="Path_5" data-name="Path 5" d="M204.022,591.845A49.393,49.393,0,0,0,193.84,570.43,23.542,23.542,0,0,0,186.9,564.1c-1.407-.743-2.944-1.224-4.109-2.5-2.141-2.341-2.254-6.347-2.767-9.827-.6-4.05-2.045-8.074-4.534-10.807-1.583-1.742-4.017-3.791-6.163-3.125-5.866,1.82-4.689,13.1-3.91,18.874,1.037,7.678,2.347,18.345,8.878,21.482a5.711,5.711,0,0,1,2.006,1.261,5.489,5.489,0,0,1,1.106,2.678c.792,4.461-.791,9.794,1.685,13.2,1.258,1.731,3.216,2.323,4.576,3.92,2.157,2.537,2.234,6.772,3.724,9.983l16.786.044C205.465,604.346,205.006,597.075,204.022,591.845Z" transform="translate(-145.985 -537.716)" fill="#a9cbf7"/>
        <g id="Group_4" data-name="Group 4" transform="translate(0 42.572)">
          <g id="Group_2" data-name="Group 2">
            <path id="Path_6" data-name="Path 6" d="M175.891,621.993c-5.343-.766-11.109.743-16-1.539-3.508-1.635-5.917-4.941-9.087-7.157a16.937,16.937,0,0,0-10.941-2.985,6.739,6.739,0,0,0-3.924,1.35c-1.853,1.609-1.921,4.438-1.567,6.869a9.5,9.5,0,0,0,1.306,3.987c2.244,3.314,7.275,3.34,10.167,6.106,2.578,2.467,2.826,6.391,3.931,9.794h42.07a18.782,18.782,0,0,0-2.706-7.811A19.036,19.036,0,0,0,175.891,621.993Z" transform="translate(-133.608 -609.664)" fill="#fff"/>
            <path id="Path_7" data-name="Path 7" d="M192.108,638.606h-43.17l-.133-.407c-.3-.936-.546-1.912-.779-2.859-.637-2.578-1.238-5.011-3-6.691a13.919,13.919,0,0,0-4.559-2.5c-2.14-.851-4.351-1.731-5.689-3.71a10.059,10.059,0,0,1-1.4-4.239c-.506-3.451.089-5.944,1.766-7.394a7.175,7.175,0,0,1,4.266-1.5,17.444,17.444,0,0,1,11.328,3.088,34.14,34.14,0,0,1,3.624,3.063,21.567,21.567,0,0,0,5.373,4.046c2.933,1.365,6.18,1.317,9.618,1.261a39.737,39.737,0,0,1,6.216.222h0a19.251,19.251,0,0,1,16.461,16.951Zm-42.3-1.187h40.954A18.059,18.059,0,0,0,175.4,622.173h0a38.035,38.035,0,0,0-6.028-.211c-3.422.052-6.959.107-10.14-1.376a22.776,22.776,0,0,1-5.681-4.253,34.643,34.643,0,0,0-3.5-2.959A16.444,16.444,0,0,0,139.5,610.5a5.963,5.963,0,0,0-3.581,1.206c-1.349,1.169-1.81,3.3-1.368,6.325a9.027,9.027,0,0,0,1.21,3.743c1.131,1.672,3.08,2.445,5.143,3.27a14.853,14.853,0,0,1,4.941,2.741c2.01,1.923,2.681,4.638,3.331,7.264C149.373,635.839,149.574,636.646,149.807,637.418Z" transform="translate(-133.204 -609.26)" fill="#2777df"/>
          </g>
          <g id="Group_3" data-name="Group 3" transform="translate(8.939 7.005)">
            <path id="Path_8" data-name="Path 8" d="M177.76,642.886a17.7,17.7,0,0,0-11.9-9.32c-8.726-1.986-16.859-11.9-16.859-11.9" transform="translate(-148.54 -621.287)" fill="#fff"/>
            <path id="Path_9" data-name="Path 9" d="M176.9,642.874a17.254,17.254,0,0,0-11.486-8.984c-8.826-2-16.851-11.691-17.187-12.1l.919-.755c.08.1,8.107,9.783,16.532,11.7a18.136,18.136,0,0,1,12.314,9.672Z" transform="translate(-148.227 -621.033)" fill="#2777df"/>
          </g>
        </g>
      </g>
      <g id="Group_10" data-name="Group 10" transform="translate(269.194 258)">
        <path id="Path_10" data-name="Path 10" d="M586.954,634.032c.141.056.81-5.271.832-5.574.766-9.576-2.034-18.56-8.437-23.982-1.6-1.346-8.692-7.053-10.016-3.11C567.011,608.279,577.245,630.345,586.954,634.032Z" transform="translate(-569 -592.759)" fill="#a9cbf7"/>
        <g id="Group_9" data-name="Group 9" transform="translate(14.314)">
          <g id="Group_6" data-name="Group 6">
            <path id="Path_11" data-name="Path 11" d="M596.825,629.373c-4.682-2.511-2.23-13.541-1.191-17.091a32.622,32.622,0,0,1,14.107-18.763c2.563-1.557,12.076-7.7,14.147-2.862,2.778,6.476-3.3,16.156-6.613,21.289a60.547,60.547,0,0,1-9.5,11.5c-2.286,2.134-5.725,6.743-9.247,6.425A4.405,4.405,0,0,1,596.825,629.373Z" transform="translate(-593.46 -588.239)" fill="#fff"/>
            <path id="Path_12" data-name="Path 12" d="M598.477,630.074c-.137,0-.27-.007-.407-.018a5.2,5.2,0,0,1-1.934-.555v0c-5.618-3.014-1.923-16.281-1.483-17.783A33,33,0,0,1,609.026,592.6l.411-.252c2.659-1.627,8.877-5.448,12.446-4.309a3.361,3.361,0,0,1,2.149,1.975c2.97,6.935-3.536,17-6.665,21.844a60.653,60.653,0,0,1-9.591,11.614c-.451.422-.962.954-1.5,1.52C604.1,627.27,601.411,630.074,598.477,630.074ZM596.7,628.45a3.94,3.94,0,0,0,1.483.422c2.511.218,5.134-2.5,7.234-4.7.551-.577,1.076-1.124,1.55-1.572a59.667,59.667,0,0,0,9.4-11.384c2.778-4.3,9.291-14.38,6.565-20.731a2.179,2.179,0,0,0-1.409-1.313c-3.059-.973-9.165,2.778-11.462,4.194l-.418.255a31.808,31.808,0,0,0-13.851,18.423c-1.387,4.756-3,14.306.906,16.4Z" transform="translate(-593.055 -587.834)" fill="#2777df"/>
          </g>
          <g id="Group_7" data-name="Group 7" transform="translate(3.052 7.526)">
            <path id="Path_13" data-name="Path 13" d="M599.167,634.58s4.66-24.119,19.337-33.247" transform="translate(-598.585 -600.829)" fill="#fff"/>
            <path id="Path_14" data-name="Path 14" d="M599.358,634.347l-1.172-.225A77.04,77.04,0,0,1,602.39,620.8c2.767-6.62,7.689-15.527,15.4-20.32l.629,1.013C604.132,610.38,599.4,634.107,599.358,634.347Z" transform="translate(-598.185 -600.483)" fill="#2777df"/>
          </g>
          <g id="Group_8" data-name="Group 8" transform="translate(10.214 17.567)">
            <path id="Path_15" data-name="Path 15" d="M610.667,622.5a57.688,57.688,0,0,1,11.9-4.168" transform="translate(-610.402 -617.751)" fill="#fff"/>
            <path id="Path_16" data-name="Path 16" d="M610.752,622.634l-.533-1.062a58.742,58.742,0,0,1,12.043-4.216l.252,1.165A57.733,57.733,0,0,0,610.752,622.634Z" transform="translate(-610.22 -617.356)" fill="#2777df"/>
          </g>
        </g>
      </g>
      <g id="Group_14" data-name="Group 14" transform="translate(72.1 133.185)">
        <g id="Group_11" data-name="Group 11" transform="translate(14.755 3.205)">
          <ellipse id="Ellipse_1" data-name="Ellipse 1" cx="87.121" cy="85.519" rx="87.121" ry="85.519" transform="translate(0.595 0.595)" fill="#a9cbf7"/>
          <path id="Path_17" data-name="Path 17" d="M350.285,541.371c-48.369,0-87.715-38.632-87.715-86.115s39.346-86.115,87.715-86.115S438,407.773,438,455.256,398.652,541.371,350.285,541.371Zm0-171.039c-47.71,0-86.526,38.1-86.526,84.924s38.815,84.924,86.526,84.924,86.526-38.1,86.526-84.924S398,370.332,350.285,370.332Z" transform="translate(-262.57 -369.141)" fill="#2777df"/>
        </g>
        <g id="Group_12" data-name="Group 12">
          <circle id="Ellipse_2" data-name="Ellipse 2" cx="87.121" cy="87.121" r="87.121" transform="translate(0.595 0.595)" fill="#fff"/>
          <path id="Path_18" data-name="Path 18" d="M325.49,539.187a87.717,87.717,0,1,1,87.717-87.713A87.815,87.815,0,0,1,325.49,539.187Zm0-174.242a86.526,86.526,0,1,0,86.526,86.529A86.623,86.623,0,0,0,325.49,364.945Z" transform="translate(-237.773 -363.754)" fill="#2777df"/>
        </g>
        <g id="Group_13" data-name="Group 13" transform="translate(41.303 44.193)">
          <path id="Path_19" data-name="Path 19" d="M349.428,520.5a9.019,9.019,0,0,1-14.563.366l-26.2-34.061a7.141,7.141,0,0,1,11.321-8.706l21.8,28.346L387,441.1a7.139,7.139,0,0,1,11.741,8.126Z" transform="translate(-307.184 -438.022)" fill="#a9cbf7"/>
        </g>
      </g>
      <g id="Group_16" data-name="Group 16" transform="translate(260.277 0)">
        <circle id="Ellipse_3" data-name="Ellipse 3" cx="16.122" cy="16.122" r="16.122" transform="translate(0 23.662) rotate(-47.21)" fill="#d5e7fe"/>
        <g id="Group_15" data-name="Group 15" transform="translate(14.332 16.62)">
          <path id="Path_20" data-name="Path 20" d="M584.148,212.833a1.672,1.672,0,0,1-2.644-.546l-3.284-7.24a1.322,1.322,0,1,1,2.408-1.093l2.733,6.025,10.9-9.872a1.322,1.322,0,1,1,1.775,1.958Z" transform="translate(-578.1 -199.766)" fill="#fff"/>
        </g>
      </g>
      <g id="Group_21" data-name="Group 21" transform="translate(86.062 18.775)">
        <g id="Group_18" data-name="Group 18" transform="translate(219.761 118.311)">
          <path id="Path_21" data-name="Path 21" d="M630.558,432.8v9.609l16.107-12.435Z" transform="translate(-630.558 -413.457)" fill="#2777df"/>
          <rect id="Rectangle_2" data-name="Rectangle 2" width="35.042" height="19.345" transform="translate(35.042 19.345) rotate(180)" fill="#2777df"/>
          <g id="Group_17" data-name="Group 17" transform="translate(4.734 6.375)">
            <rect id="Rectangle_3" data-name="Rectangle 3" width="24.692" height="1.19" fill="#fff"/>
            <rect id="Rectangle_4" data-name="Rectangle 4" width="24.692" height="1.19" transform="translate(0 5.405)" fill="#fff"/>
          </g>
        </g>
        <g id="Group_20" data-name="Group 20">
          <path id="Path_22" data-name="Path 22" d="M316.713,238.792v11.122l-18.645-14.393Z" transform="translate(-276.153 -216.4)" fill="#2777df"/>
          <rect id="Rectangle_5" data-name="Rectangle 5" width="40.562" height="22.392" fill="#2777df"/>
          <g id="Group_19" data-name="Group 19" transform="translate(6.501 7.473)">
            <rect id="Rectangle_6" data-name="Rectangle 6" width="28.581" height="1.19" fill="#fff"/>
            <rect id="Rectangle_7" data-name="Rectangle 7" width="28.581" height="1.19" transform="translate(0 6.256)" fill="#fff"/>
          </g>
        </g>
      </g>
      <g id="Group_31" data-name="Group 31" transform="translate(158.149 25.53)">
        <path id="Path_23" data-name="Path 23" d="M502.106,299.454l-13.985,2.232c-.462-17.519-9.276-50.342-13.041-63.646a14.452,14.452,0,0,1,9.335,8.86c8.081,17.876,16.366,36.927,22.351,42.884Z" transform="translate(-419.922 -205.189)" fill="#f5ad84"/>
        <g id="Group_25" data-name="Group 25" transform="translate(19.274 78.496)">
          <path id="Path_24" data-name="Path 24" d="M490,338.66s36.594-7.734,41.65,0,8.034,59.505,5.655,76.464L502.2,394Z" transform="translate(-445.236 -323.041)" fill="#184785"/>
          <path id="Path_25" data-name="Path 25" d="M550.805,471.194s-4.461,9.52-35.555,14.728l18-21.422Z" transform="translate(-455.462 -375.393)"/>
          <g id="Group_22" data-name="Group 22" transform="translate(57.907 97.337)">
            <path id="Path_26" data-name="Path 26" d="M561.03,503.126c-3.055,7.024-36.1,14.68-38.876,10.116a22.652,22.652,0,0,1-1.335-2.807c-1.994-4.749-5.182-14-8.729-24.785l24.744-7.32,5.355,15.471c8.052,1.994,17.554,4.057,18.9,7.468A2.3,2.3,0,0,1,561.03,503.126Z" transform="translate(-512.09 -478.33)" fill="#fff"/>
            <path id="Path_27" data-name="Path 27" d="M536.272,479.429l5.075,14.665.159.459.466.118q.954.233,1.92.47c6.813,1.668,15.3,3.743,16.374,6.461a1.4,1.4,0,0,1-.059,1.169c-.966,2.23-5.973,4.971-13.393,7.334-6.92,2.2-14.562,3.621-19.466,3.621-3.669,0-4.335-.792-4.431-.951a20.59,20.59,0,0,1-1.269-2.689c-1.735-4.117-4.564-12.135-8.422-23.841l23.046-6.817m.562-1.1-24.744,7.32c3.547,10.789,6.735,20.035,8.729,24.785a22.652,22.652,0,0,0,1.335,2.807c.585.958,2.5,1.376,5.193,1.376,10.138,0,31.268-5.944,33.684-11.492a2.3,2.3,0,0,0,.059-1.857c-1.346-3.41-10.848-5.474-18.9-7.468l-5.355-15.471Z" transform="translate(-512.09 -478.33)"/>
          </g>
          <g id="Group_23" data-name="Group 23" transform="translate(67.651 101.941)">
            <line id="Line_1" data-name="Line 1" x2="5.95" y2="15.769" transform="translate(0.418 0.158)" fill="#fff"/>
            <rect id="Rectangle_9" data-name="Rectangle 9" width="0.893" height="16.854" transform="translate(0 0.315) rotate(-20.674)"/>
          </g>
          <path id="Path_28" data-name="Path 28" d="M540.668,509.782c.266.921-1.549,2.253-4.046,2.97s-4.749.558-5.015-.362,1.55-2.249,4.053-2.97S540.4,508.865,540.668,509.782Z" transform="translate(-462.078 -393.402)"/>
          <path id="Path_29" data-name="Path 29" d="M447.935,314.75l27.373,10.264c10.116,1.637,34.811,85.536,34.811,85.536-19.939,3.571-35.559,14.728-35.559,14.728l-1.879-5.872c-8.884-27.028-23.557-54.227-23.557-54.227-40.763-4.165-33.92-35.106-33.92-35.106Z" transform="translate(-414.773 -314.75)" fill="#2777df"/>
          <g id="Group_24" data-name="Group 24" transform="translate(9.874 10.164)">
            <path id="Path_30" data-name="Path 30" d="M431.368,363.372c.233.192.477.379.721.566,2.227-4.675,4.3-9.52,5.1-14.73,1.032-6.746-.558-13.206-4.246-17.376l-.84.394c3.639,3.963,5.211,10.253,4.2,16.849C435.537,354.1,433.536,358.812,431.368,363.372Z" transform="translate(-431.368 -331.832)" fill="#fff"/>
            <path id="Path_31" data-name="Path 31" d="M486.736,413.078a13.482,13.482,0,0,0-8.241-1.99c.141.281.281.566.429.858a12.683,12.683,0,0,1,7.349,1.894,19.684,19.684,0,0,1,7.1,8.126,30.7,30.7,0,0,1,.991,24.866c.152.4.3.8.455,1.2a31.613,31.613,0,0,0-.651-26.471A20.6,20.6,0,0,0,486.736,413.078Z" transform="translate(-450.453 -363.904)" fill="#fff"/>
            <path id="Path_32" data-name="Path 32" d="M536.531,381.105a53.9,53.9,0,0,0,5,3.688c-.163-.462-.325-.928-.484-1.391-1.357-.934-2.682-1.921-3.95-2.983-5.4-4.52-9.106-9.827-10.7-15.344a14.793,14.793,0,0,1-.344-8.074,8.978,8.978,0,0,1,2.8-4.442c-.133-.285-.266-.555-.4-.832a9.871,9.871,0,0,0-3.251,5.034,15.619,15.619,0,0,0,.344,8.562C527.188,371.012,530.987,376.469,536.531,381.105Z" transform="translate(-469.182 -339.889)" fill="#fff"/>
          </g>
          <path id="Path_33" data-name="Path 33" d="M566.964,518.733c-3.055,7.02-36.095,14.684-38.873,10.116a22.5,22.5,0,0,1-1.332-2.807c6.006.606,19.544.333,40.27-9.161A2.306,2.306,0,0,1,566.964,518.733Z" transform="translate(-460.123 -396.602)"/>
        </g>
        <g id="Group_29" data-name="Group 29" transform="translate(0 31.041)">
          <path id="Path_34" data-name="Path 34" d="M389.06,245.092C399.142,234.858,424.134,235,424.134,235l13.208,1.232a13.738,13.738,0,0,1,2.9.577l18.549,53.976-20.679-5.5L399.734,289Z" transform="translate(-385.086 -235)"/>
          <g id="Group_26" data-name="Group 26" transform="translate(52.582 33.013)">
            <rect id="Rectangle_10" data-name="Rectangle 10" width="27.074" height="4.044" transform="translate(0 28.833)" fill="#fff"/>
            <path id="Path_35" data-name="Path 35" d="M543.31,290.48,536.6,313.173l-3.011,10.182H502.5l1.2-4.039,8.518-28.836Z" transform="translate(-483.607 -290.48)" fill="#d5e7fe"/>
          </g>
          <path id="Path_36" data-name="Path 36" d="M452.77,303.376c-2.186,1.387-5.311-3.819-5.311-3.819s-1.568,3.419-6.395,3.419c-1.387,0-5.652-4.76-5.652-4.76a88.676,88.676,0,0,1-27.484,11.623c-.632.141-1.269.279-1.912.405a10.49,10.49,0,0,1-11.377-5.452c-.422-.815-.869-1.749-1.339-2.785-5.381-11.919-13.263-37.023-10.253-45.146a14.255,14.255,0,0,1,3.31-5.082,11.486,11.486,0,0,1,3.7-.2,14.2,14.2,0,0,1,11.887,9.735L409.23,288.4s29.056-7.04,33.221-5.058S454.486,302.276,452.77,303.376Z" transform="translate(-382.383 -241.689)" fill="#f5ad84"/>
          <path id="Path_37" data-name="Path 37" d="M415.417,341.755a8.266,8.266,0,0,1-.059,1.012c-.632.142-1.269.279-1.908.4a10.481,10.481,0,0,1-11.377-5.45c-.425-.815-.869-1.747-1.343-2.783a8.928,8.928,0,0,1,14.687,6.818Z" transform="translate(-389.813 -274.619)" fill="#dc6a61" opacity="0.4"/>
          <g id="Group_27" data-name="Group 27" transform="translate(57.597 50.909)">
            <rect id="Rectangle_11" data-name="Rectangle 11" width="0.893" height="7.701" transform="matrix(0.876, -0.483, 0.483, 0.876, 3.372, 0.431)"/>
            <rect id="Rectangle_12" data-name="Rectangle 12" width="0.893" height="7.701" transform="translate(0 3.357) rotate(-28.875)"/>
          </g>
          <path id="Path_38" data-name="Path 38" d="M551.858,325.567l-3.011,10.18h-3.713c-4.586-5.9-4.964-14.667-4.964-14.667Z" transform="translate(-446.278 -269.859)" fill="#184785" opacity="0.2"/>
          <g id="Group_28" data-name="Group 28" transform="translate(93.565 38.217)">
            <path id="Path_39" data-name="Path 39" d="M542.519,311.48c-2.522-.129-3.924.577-1.994,3.617s8.27,10.186,13.363,10.251,10.822-4.085,8.34-11.7S550.9,298.388,548.255,299.3s5.049,7.845,4.435,9.659c-.754,2.221-10.323-4.1-12.091-2C539.446,308.328,542.519,311.48,542.519,311.48Z" transform="translate(-539.623 -299.226)" fill="#f5ad84"/>
            <path id="Path_40" data-name="Path 40" d="M552.895,324.213c-4.376-.2-8.732-4.124-8.914-4.29l.6-.66c.041.039,4.3,3.872,8.352,4.059Z" transform="translate(-541.385 -307.341)"/>
            <path id="Path_41" data-name="Path 41" d="M554.55,314.714a18.4,18.4,0,0,1-8.178-2.343l.448-.769c.048.026,4.531,2.6,8.706,2.171l.089.889C555.26,314.7,554.9,314.714,554.55,314.714Z" transform="translate(-542.357 -304.237)"/>
          </g>
          <path id="Path_42" data-name="Path 42" d="M429.5,260.931a43.13,43.13,0,0,1,10.245-1.944c3.817-.155,10.848-1.32,10.848-1.32s4.948,11.653,4.342,12.509-20.228,3.73-21.182,3.5S429.5,260.931,429.5,260.931Z" transform="translate(-401.463 -244.18)" fill="#fff" opacity="0.3"/>
        </g>
        <g id="Group_30" data-name="Group 30" transform="translate(18.117)">
          <path id="Path_43" data-name="Path 43" d="M440.148,218.22v10.358a3.9,3.9,0,0,1-.129.666,5.7,5.7,0,0,1-9.557,2.315c-1.291-1.32-2.234-2.445-2.234-2.445s-.033-1.065-.037-1.72V218.22Z" transform="translate(-419.049 -197.163)" fill="#f5ad84"/>
          <path id="Path_44" data-name="Path 44" d="M440.148,223.324v2.053a39.642,39.642,0,0,1-11.958,2.018V218.22h8.858Z" transform="translate(-419.049 -197.163)" fill="#de856d"/>
          <path id="Path_45" data-name="Path 45" d="M449.845,204.728s1.539,9.174,3.321,13.687a13.894,13.894,0,0,1-9.916-1.934l3.369-12.4Z" transform="translate(-425.15 -191.439)"/>
          <path id="Path_46" data-name="Path 46" d="M440.135,202.609c.181,5.818-1.021,11.444-6.173,11.6s-11.806-5.82-11.991-11.638,3.847-10.665,9-10.826S439.957,196.791,440.135,202.609Z" transform="translate(-416.53 -186.442)" fill="#f5ad84"/>
          <path id="Path_47" data-name="Path 47" d="M437.526,199.218a11.733,11.733,0,0,1-4.963,1.208l-1.258-2.127-1.191,2.23c-3.854-.12-5.06-.867-5.06-.867a22.149,22.149,0,0,0-.518,14.43c-7.142,1.683-11.706-4.265-11.706-4.265,2.678-15.965,6.946-18.846,15.275-19.34S437.526,199.218,437.526,199.218Z" transform="translate(-412.83 -185.925)"/>
          <path id="Path_48" data-name="Path 48" d="M433.344,187.173a4.339,4.339,0,1,1-4.342-4.34A4.34,4.34,0,0,1,433.344,187.173Z" transform="translate(-417.625 -182.833)"/>
        </g>
      </g>
    </g>
  </g>
</svg>
